<svg width="431" height="251" viewBox="0 0 431 251" fill="none" xmlns="http://www.w3.org/2000/svg">
<path d="M1 0H431V250H1V0Z" fill="#00EDDD"/>
<mask id="mask0_496_434" style="mask-type:alpha" maskUnits="userSpaceOnUse" x="0" y="1" width="430" height="250">
<path d="M0 1H430V251H0V1Z" fill="#00EDDD"/>
</mask>
<g mask="url(#mask0_496_434)">
<path d="M211.341 95.8599C211.341 95.8599 202.413 85.4135 201.46 85.3188C197.565 84.9275 189.881 93.0447 189.881 93.0447C189.869 93.0573 186.655 96.0114 182.627 100.442L198.594 115.743C199.421 114.253 201.618 111.684 201.618 111.684C211.347 106.754 211.347 95.8536 211.347 95.8536L211.341 95.8599Z" fill="#FC9C9A"/>
<path d="M197.33 86.4865L192.964 90.8516L208.866 106.75L213.232 102.385L197.33 86.4865Z" fill="#272525"/>
<path d="M156.938 59.8624L190.443 93.3602C191.63 94.5469 194.698 93.4107 197.293 90.8165C199.888 88.2222 201.025 85.1546 199.838 83.968L166.332 50.4702L156.938 59.8624Z" fill="black"/>
<path d="M166.332 50.4702C167.519 51.6569 166.382 54.7245 163.787 57.3187C161.192 59.913 158.124 61.0491 156.937 59.8625C155.75 58.6758 156.887 55.6082 159.481 53.014C162.076 50.4197 165.145 49.2836 166.332 50.4702Z" fill="#B0D0FF"/>
<path d="M215.135 104.848L211.113 108.869C210.507 109.475 209.529 109.475 208.929 108.869C208.323 108.263 208.323 107.285 208.929 106.685L212.951 102.664C213.557 102.058 214.535 102.058 215.135 102.664C215.741 103.27 215.741 104.249 215.135 104.848Z" fill="#272525"/>
<path d="M202.268 86.8021C201.757 88.1844 200.886 89.51 199.844 90.6019C197.552 93.0131 201.201 96.6804 203.506 94.2629C205.191 92.4892 206.41 90.4631 207.256 88.1781C207.742 86.8652 206.713 85.344 205.45 84.9969C204.004 84.5992 202.754 85.4892 202.268 86.8021Z" fill="#FC9C9A"/>
<path d="M206.082 88.8093C205.476 90.7786 204.554 92.5523 203.361 94.2313C202.546 95.3675 203.159 97.1096 204.289 97.7723C205.589 98.5298 207.016 97.987 207.831 96.8445C209.276 94.8183 210.343 92.5649 211.076 90.1853C212.054 86.9978 207.06 85.6344 206.088 88.8093H206.082Z" fill="#FC9C9A"/>
<path d="M209.485 91.1511C209.175 93.4171 208.525 95.5442 207.42 97.5514C205.816 100.474 210.28 103.087 211.89 100.165C213.203 97.7787 214.1 95.2286 214.472 92.5271C214.662 91.1447 214.138 89.7498 212.667 89.3458C211.461 89.0113 209.674 89.7624 209.485 91.1511Z" fill="#FC9C9A"/>
<path d="M199.307 84.4604C198.739 86.1204 198.019 87.6795 197.142 89.2007C195.481 92.0979 199.951 94.7047 201.612 91.8138C202.698 89.9139 203.588 87.913 204.295 85.8427C204.749 84.5235 203.777 83.0149 202.489 82.6614C201.069 82.2701 199.762 83.1412 199.307 84.4667V84.4604Z" fill="#FC9C9A"/>
<path d="M238.824 126.461C240.465 122.099 244.86 118.918 249.513 118.722C254.166 118.526 258.819 121.323 260.82 125.533C261.451 126.865 261.837 128.31 262.499 129.629C263.162 130.948 264.179 132.192 265.587 132.64C268.074 133.429 270.574 131.523 273.163 131.188C275.07 130.942 277.02 131.58 278.593 132.684C280.171 133.783 281.402 135.316 282.412 136.945C284.742 140.688 286.017 145.138 285.676 149.537C285.335 153.937 283.315 158.242 279.918 161.057C276.231 164.118 271.237 165.235 266.445 165.147C260.725 165.046 254.923 163.266 250.599 159.523C246.274 155.78 243.628 149.941 244.392 144.273C241.709 144.14 239.108 142.809 237.448 140.7C235.781 138.592 235.08 135.758 235.572 133.12L238.824 126.461Z" fill="#F65922"/>
<path d="M244.329 128.234C243.874 125.684 242.946 123.677 241.727 122.118C240.458 123.33 239.442 124.807 238.823 126.454L235.572 133.113C235.079 135.752 235.786 138.592 237.447 140.694C237.958 141.344 238.558 141.912 239.221 142.405C242.195 140.385 245.755 136.231 244.322 128.234H244.329Z" fill="#BD231E"/>
<path d="M202.483 200.891C202.483 200.891 202.697 185.938 200.134 176.975C197.571 168.006 200.134 165.658 200.134 165.658C200.134 165.658 167.449 143.017 166.812 128.922C166.407 120.022 175.714 108.055 182.627 100.442C186.661 95.9986 199.427 114.253 198.594 115.743C197.501 117.712 196.763 119.959 196.542 122.591C196.542 122.591 212.736 141.092 231.108 143.661C249.48 146.223 257.808 158.393 257.808 158.393L259.096 200.898H202.489L202.483 200.891Z" fill="black"/>
<mask id="mask1_496_434" style="mask-type:luminance" maskUnits="userSpaceOnUse" x="166" y="99" width="94" height="102">
<path d="M202.483 200.891C202.483 200.891 202.697 185.938 200.134 176.975C197.571 168.006 200.134 165.658 200.134 165.658C200.134 165.658 167.449 143.017 166.812 128.922C166.407 120.022 175.714 108.055 182.627 100.442C186.661 95.9986 199.427 114.253 198.594 115.743C197.501 117.712 196.763 119.959 196.542 122.591C196.542 122.591 212.736 141.092 231.108 143.661C249.48 146.223 257.808 158.393 257.808 158.393L259.096 200.898H202.489L202.483 200.891Z" fill="white"/>
</mask>
<g mask="url(#mask1_496_434)">
<path d="M218.405 182.726L229.631 169.874C230.148 169.281 230.287 168.448 229.997 167.716L228.305 163.524L238.747 156.657C239.473 156.177 239.821 155.294 239.606 154.454L237.005 144.071" stroke="#333659" stroke-width="1.09" stroke-linecap="round" stroke-linejoin="round"/>
<path d="M208.487 182.391L203.095 167.646L207.35 161.694L204.49 156.543L212.944 143.572" stroke="#333659" stroke-width="1.09" stroke-linecap="round" stroke-linejoin="round"/>
</g>
<path d="M233.583 144.077C232.775 143.92 231.955 143.774 231.102 143.655C225.9 142.929 220.874 140.921 216.335 138.422C203.897 165.545 210.451 192.806 212.888 200.885H216.827C215.792 170.518 225.944 152.921 233.583 144.071V144.077Z" fill="white"/>
<path d="M257.808 158.393L239.953 174.463L245.313 190.067L271.041 187.757L257.808 158.393Z" fill="black"/>
<path d="M255.577 170.412L235.716 160.727C234.923 160.341 233.967 160.67 233.58 161.463L220.724 187.815C220.338 188.607 220.667 189.563 221.46 189.95L241.321 199.634C242.113 200.021 243.07 199.692 243.456 198.899L256.312 172.547C256.699 171.755 256.37 170.799 255.577 170.412Z" fill="#EA4235"/>
<path d="M219.416 115.547C219.416 115.547 210.678 118.867 210.306 125.886C209.939 132.899 214.858 136.717 214.858 136.717L213.608 142.272L215.546 153.103L219.126 148.679L233.445 145.087L232.706 140.164C232.706 140.164 243.66 137.336 241.324 124.289C238.988 111.242 224.587 112.397 219.41 115.553L219.416 115.547Z" fill="#FC9C9A"/>
<path d="M214.864 136.711C216.524 137.298 218.361 137.21 220.306 136.711L213.614 142.266L214.864 136.711Z" fill="#D46868"/>
<path d="M241.33 124.283C239.795 115.711 233.053 113.268 227.143 113.496C225.382 125.103 232.712 140.157 232.712 140.157C232.712 140.157 243.666 137.33 241.33 124.283Z" fill="#F65922"/>
<path d="M215.331 118.709C215.331 118.709 214.358 116.626 215.703 115.837C217.048 115.048 219.131 116.298 219.131 116.298L215.331 118.709Z" fill="#FC9C9A"/>
<path d="M228.678 124.289L222.301 116.494C221.67 115.692 222.844 114.733 223.501 115.509C223.545 115.553 229.189 123.822 229.227 123.879C229.467 124.232 228.949 124.624 228.678 124.289Z" fill="#272525"/>
<path d="M224.581 112.896L217.862 116.775C217.548 116.956 217.44 117.357 217.621 117.671L217.823 118.021C218.005 118.335 218.406 118.443 218.72 118.262L225.44 114.383C225.754 114.202 225.862 113.8 225.68 113.486L225.478 113.136C225.297 112.822 224.895 112.715 224.581 112.896Z" fill="#272525"/>
<path d="M233.425 127.451C233.425 129.825 231.5 131.75 229.126 131.75C226.752 131.75 224.826 129.825 224.826 127.451C224.826 125.078 226.752 123.153 229.126 123.153C231.5 123.153 233.425 125.078 233.425 127.451Z" fill="#FC9C9A"/>
<path d="M233.084 141.407C233.084 141.407 226.689 147.069 219.132 148.672L220.306 157.427L233.451 145.081L233.084 141.407Z" fill="#E0E0E0"/>
<path d="M214.605 147.549L208.487 152.194L213.614 142.272L214.605 147.549Z" fill="#E0E0E0"/>
<path d="M214.604 147.549L215.552 153.103L219.131 148.723" stroke="#E0E0E0" stroke-width="1.09" stroke-linecap="round" stroke-linejoin="round"/>
<path d="M215.066 119.915C214.977 119.599 214.883 119.277 214.794 118.962C214.756 118.81 214.687 118.678 214.586 118.57C214.504 118.444 214.397 118.343 214.258 118.274C214.125 118.192 213.98 118.141 213.828 118.135C213.677 118.103 213.519 118.11 213.368 118.154C213.273 118.192 213.184 118.23 213.09 118.274C212.913 118.375 212.774 118.514 212.673 118.69C212.635 118.785 212.597 118.873 212.553 118.968C212.496 119.176 212.496 119.378 212.553 119.587C212.566 119.637 212.585 119.688 212.597 119.738C211.372 119.991 211.455 122.029 212.862 122.029C213.386 122.029 213.721 121.745 213.879 121.379C214.005 121.398 214.131 121.392 214.258 121.354C214.352 121.316 214.441 121.278 214.536 121.234C214.712 121.133 214.851 120.994 214.952 120.818C214.99 120.723 215.028 120.634 215.072 120.54C215.129 120.331 215.129 120.129 215.072 119.921L215.066 119.915Z" fill="#FC9C9A"/>
<path d="M244.007 212.26H257.871C269.229 212.26 276.805 200.538 272.14 190.186L271.041 187.756L238.236 188.369L244.007 212.266V212.26Z" fill="black"/>
<path d="M238.236 188.369L264.286 188.28" stroke="#333659" stroke-width="0.77" stroke-miterlimit="10"/>
<path d="M238.237 188.369L231.102 188.009C231.102 188.009 228.129 183.489 227.175 182.126C226.222 180.756 224.082 181.116 223.659 183.016C223.236 184.916 224.72 189.259 224.72 189.259L223.147 189.126C222.971 188.608 222.819 188.078 222.706 187.542C221.992 184.291 217.004 185.667 217.718 188.918C217.8 189.303 217.901 189.675 218.015 190.048C216.379 189.902 214.586 191.184 215.205 193.216C215.401 193.854 215.634 194.479 215.906 195.085C214.706 195.703 213.961 197.098 214.915 198.544C215.3 199.124 215.679 199.705 216.064 200.286C215.515 200.923 215.275 201.813 215.515 202.659C216.266 205.285 217.794 207.544 220.117 208.965C226.153 212.645 244.014 212.272 244.014 212.272L238.243 188.375L238.237 188.369Z" fill="#FC9C9A"/>
<mask id="mask2_496_434" style="mask-type:luminance" maskUnits="userSpaceOnUse" x="214" y="181" width="31" height="32">
<path d="M238.237 188.369L231.102 188.009C231.102 188.009 228.129 183.489 227.175 182.126C226.222 180.756 224.082 181.116 223.659 183.016C223.236 184.916 224.72 189.259 224.72 189.259L223.147 189.126C222.971 188.608 222.819 188.078 222.706 187.542C221.992 184.291 217.004 185.667 217.718 188.918C217.8 189.303 217.901 189.675 218.015 190.048C216.379 189.902 214.586 191.184 215.205 193.216C215.401 193.854 215.634 194.479 215.906 195.085C214.706 195.703 213.961 197.098 214.915 198.544C215.3 199.124 215.679 199.705 216.064 200.286C215.515 200.923 215.275 201.813 215.515 202.659C216.266 205.285 217.794 207.544 220.117 208.965C226.153 212.645 244.014 212.272 244.014 212.272L238.243 188.375L238.237 188.369Z" fill="white"/>
</mask>
<g mask="url(#mask2_496_434)">
<path d="M218.002 189.966C218.526 191.802 219.492 193.513 220.792 194.914" stroke="#D46868" stroke-width="1.09" stroke-linecap="round" stroke-linejoin="round"/>
<path d="M215.4 194.927C216.284 196.619 217.578 198.102 219.131 199.213" stroke="#D46868" stroke-width="1.09" stroke-linecap="round" stroke-linejoin="round"/>
<path d="M215.148 199.478C216.24 201.049 217.699 202.356 219.384 203.265" stroke="#D46868" stroke-width="1.09" stroke-linecap="round" stroke-linejoin="round"/>
</g>
<path d="M192.735 174.438H164.4V268.796H192.735V174.438Z" fill="#E0E0E0"/>
<path d="M172.62 186.109H168.978V262.617H172.62V186.109Z" fill="#EEEEEE"/>
<path d="M180.594 186.109H176.951V262.617H180.594V186.109Z" fill="#EEEEEE"/>
<path d="M188.575 186.109H184.932V262.617H188.575V186.109Z" fill="#EEEEEE"/>
<path d="M164.735 156.14H136.4V268.796H164.735V156.14Z" fill="#EEEEEE"/>
<path d="M146.003 172.008H141.337V183.155H146.003V172.008Z" fill="#C5C5C5"/>
<path d="M153.932 172.008H149.267V183.155H153.932V172.008Z" fill="#C5C5C5"/>
<path d="M153.932 188.047H149.267V199.194H153.932V188.047Z" fill="#C5C5C5"/>
<path d="M161.862 200.614H157.196V211.761H161.862V200.614Z" fill="#C5C5C5"/>
<path d="M321.404 251.198H237.712V174.059L321.404 146.943V251.198Z" fill="#FEBB05"/>
<path d="M290.05 189.386C291.094 182.993 286.756 176.965 280.362 175.922C273.968 174.879 267.939 179.215 266.895 185.607C265.852 192 270.189 198.028 276.583 199.071C282.977 200.115 289.006 195.778 290.05 189.386Z" fill="white"/>
<path d="M247.536 199.888H192.11V251.041H247.536V199.888Z" fill="#EA4235"/>
<path d="M161.401 249.197C161.401 249.86 161.388 250.529 161.363 251.179H55.0379C55.0126 250.523 55 249.86 55 249.197C55 234.509 60.9536 221.216 70.588 211.59C80.2097 201.971 93.5122 196.012 108.204 196.012C122.895 196.012 136.191 201.965 145.819 211.59C155.441 221.216 161.401 234.509 161.401 249.197Z" fill="#00CABC"/>
<path d="M211 250.131C211 250.611 210.988 251.091 210.975 251.558H134.405C134.386 251.084 134.38 250.605 134.38 250.131C134.38 239.552 138.667 229.983 145.605 223.047C152.537 216.116 162.115 211.83 172.696 211.83C183.278 211.83 192.849 216.116 199.788 223.047C206.72 229.977 211.007 239.552 211.007 250.131H211Z" fill="#007E75"/>
<path d="M331.509 67.891L326.098 69.6521V75.3455L322.752 70.7377L317.335 72.4988L320.681 67.891L317.335 63.2896L322.752 65.0506L326.098 60.4429V66.1363L331.509 67.891Z" fill="#F4EA94"/>
<path d="M123.154 118.962L117.737 120.723V126.416L114.391 121.809L108.98 123.57L112.327 118.962L108.98 114.36L114.391 116.121L117.737 111.514V117.207L123.154 118.962Z" fill="#F4EA94"/>
<path d="M377 251.697H269.494H269.513C269.759 246.351 274.779 242.084 280.947 242.084C281.534 242.084 282.108 242.134 282.67 242.21C282.456 241.03 282.336 239.811 282.336 238.568C282.336 227.301 291.471 218.174 302.735 218.174C311.403 218.174 318.802 223.583 321.757 231.202C326.019 226.796 332.44 223.981 339.624 223.981C352.34 223.981 362.662 232.774 362.852 243.681C364.177 243.018 365.667 242.627 367.252 242.627C372.41 242.627 376.621 246.628 376.962 251.703H376.994L377 251.697Z" fill="#007E75"/>
<path d="M347.548 249.141C347.548 250.031 347.466 250.895 347.301 251.735H320.198C320.033 250.895 319.951 250.031 319.951 249.141C319.951 241.522 326.126 235.349 333.746 235.349C340.18 235.349 345.584 239.748 347.118 245.701C347.402 246.799 347.548 247.954 347.548 249.141Z" fill="#00CABC"/>
<path d="M366.652 251.735H341.342C342.566 249.191 344.593 247.083 347.112 245.7C349.145 244.59 351.487 243.952 353.994 243.952C359.6 243.952 364.436 247.14 366.646 251.735H366.652Z" fill="#00CABC"/>
<path d="M289.87 63.2842C288.083 65.5704 284.743 62.8708 282.955 65.157C281.168 67.4432 284.508 70.1479 282.715 72.4341C280.923 74.7203 277.588 72.0207 275.795 74.3119C274.003 76.6031 277.348 79.3028 275.555 81.589C273.763 83.8752 270.428 81.1806 268.635 83.4668C266.843 85.753 270.183 88.4577 268.395 90.7489" stroke="#BD231E" stroke-width="4.36" stroke-linecap="round" stroke-linejoin="round"/>
<path d="M115.874 82.327C118.179 85.2242 113.873 88.6453 116.177 91.5488C118.482 94.4523 122.788 91.0249 125.092 93.9284C127.397 96.8319 123.091 100.253 125.401 103.15C127.712 106.047 132.012 102.626 134.316 105.53C136.621 108.433 132.321 111.855 134.625 114.758C136.93 117.662 141.236 114.24 143.546 117.138" stroke="#FEBB05" stroke-width="4.36" stroke-linecap="round" stroke-linejoin="round"/>
</g>
</svg>
