<svg width="430" height="250" viewBox="0 0 430 250" fill="none" xmlns="http://www.w3.org/2000/svg">
<path d="M0 0H430V250H0V0Z" fill="#0085FF"/>
<rect y="192" width="429" height="58" fill="#0065C1"/>
<path d="M267.365 96.772H179.155V203.442H267.365V96.772Z" fill="#E6E6E6"/>
<path d="M193.294 96.772V203.442" stroke="#B3B3B3" stroke-width="0.83" stroke-linecap="round" stroke-linejoin="round"/>
<path d="M208.28 96.772V203.442" stroke="#B3B3B3" stroke-width="0.83" stroke-linecap="round" stroke-linejoin="round"/>
<path d="M223.266 96.772V203.442" stroke="#B3B3B3" stroke-width="0.83" stroke-linecap="round" stroke-linejoin="round"/>
<path d="M238.241 96.772V203.442" stroke="#B3B3B3" stroke-width="0.83" stroke-linecap="round" stroke-linejoin="round"/>
<path d="M253.227 96.772V203.442" stroke="#B3B3B3" stroke-width="0.83" stroke-linecap="round" stroke-linejoin="round"/>
<path d="M179.155 172.76H267.365" stroke="#B3B3B3" stroke-width="0.83" stroke-linecap="round" stroke-linejoin="round"/>
<path d="M179.155 187.353H267.365" stroke="#B3B3B3" stroke-width="0.83" stroke-linecap="round" stroke-linejoin="round"/>
<path d="M179.155 157.785H267.365" stroke="#B3B3B3" stroke-width="0.83" stroke-linecap="round" stroke-linejoin="round"/>
<path d="M179.155 142.811H267.365" stroke="#B3B3B3" stroke-width="0.83" stroke-linecap="round" stroke-linejoin="round"/>
<path d="M179.155 127.836H267.365" stroke="#B3B3B3" stroke-width="0.83" stroke-linecap="round" stroke-linejoin="round"/>
<path d="M179.155 112.861H267.365" stroke="#B3B3B3" stroke-width="0.83" stroke-linecap="round" stroke-linejoin="round"/>
<path d="M203.467 167.084L215.375 191.398L216.459 178.395L229.194 175.536L203.467 167.084Z" fill="#F65922"/>
<path d="M165.719 93.5107C165.615 94.4808 165.523 95.4922 165.905 96.3901C166.297 97.2983 167.123 97.9278 167.919 98.5264" fill="#FC9C9A"/>
<path d="M165.719 93.5107C165.615 94.4808 165.523 95.4922 165.905 96.3901C166.297 97.2983 167.123 97.9278 167.919 98.5264" stroke="#D46868" stroke-width="3.34" stroke-linecap="round" stroke-linejoin="round"/>
<path d="M156.548 120.694L167.309 96.7822H179.145L177.224 102.118C177.224 102.118 175.117 113.047 167.764 125.534L156.548 120.705V120.694Z" fill="#D46868"/>
<path d="M205.491 44.0869C210.448 44.6029 217.74 49.1645 217.74 49.1645C217.74 49.1645 228.78 49.0097 226.828 57.5342C224.876 66.0587 204.995 54.1698 204.995 54.1698L205.501 44.0869H205.491Z" fill="black"/>
<path d="M201.907 58.4014C194.75 83.3248 189.689 79.0728 182.067 86.2557" stroke="#D46868" stroke-width="13.35" stroke-linecap="round" stroke-linejoin="round"/>
<path d="M226.974 81.2194C226.974 81.2194 235.845 49.5466 209.365 49.7633C192.944 50.9605 198.231 74.1191 198.231 74.1191L205.213 83.7376L226.974 81.2091V81.2194Z" fill="#BD231E"/>
<path d="M184.711 93.5108C184.711 93.5108 188.13 65.801 195.793 63.6131C203.456 61.4252 209.302 66.3067 210.18 81.9522V96.4212H182.656L184.722 93.5108H184.711Z" fill="#4A4A4A"/>
<path d="M183.462 83.7476H167.319V96.7717H183.462V83.7476Z" fill="#4286F5"/>
<path d="M194.234 83.7476H183.452V96.7717H194.234V83.7476Z" fill="#165BB8"/>
<path d="M233.284 80.5278C227.738 79.4132 221.582 79.0211 214.415 79.0727C208.063 79.114 202.94 84.2844 202.94 90.621C202.94 93.9132 205.605 96.5861 208.9 96.5965L249.829 96.7616L240.761 83.531L239.924 81.9417C239.036 80.2595 237.095 79.4339 235.266 79.9499L233.294 80.5175L233.284 80.5278Z" fill="black"/>
<path d="M235.256 79.9705L233.397 80.4969V96.6997L249.819 96.7719L240.751 83.5414L239.914 81.952C239.026 80.2698 237.084 79.4442 235.256 79.9602V79.9705Z" fill="#FC9C9A"/>
<path d="M205.12 90.353C203.426 90.353 201.733 89.7337 200.4 88.485C197.633 85.8843 197.498 81.5188 200.101 78.753C206.452 72.0035 209.592 65.316 209.685 58.3086C209.737 54.5004 212.897 51.4456 216.677 51.5179C220.488 51.5695 223.524 54.6965 223.473 58.5047C223.328 68.9591 218.846 78.9491 210.15 88.1857C208.797 89.6305 206.959 90.353 205.13 90.353H205.12Z" fill="#FC9C9A"/>
<path d="M201.928 82.4473L196.258 81.4875C194.172 81.116 194.471 78.0406 196.568 78.0612C196.65 78.0612 202.186 77.958 202.258 77.958C205.522 78.0199 205.16 82.8704 201.917 82.4473H201.928Z" fill="#FC9C9A"/>
<path d="M200.967 81.4155L196.743 86.6789" stroke="#FC9C9A" stroke-width="3.34" stroke-linecap="round" stroke-linejoin="round"/>
<path d="M203.436 83.8818L197.973 90.3526" stroke="#FC9C9A" stroke-width="3.34" stroke-linecap="round" stroke-linejoin="round"/>
<path d="M205.904 86.3379L201.174 91.3742" stroke="#FC9C9A" stroke-width="3.34" stroke-linecap="round" stroke-linejoin="round"/>
<path d="M210.118 85.6776L205.14 91.075" stroke="#FC9C9A" stroke-width="3.34" stroke-linecap="round" stroke-linejoin="round"/>
<path d="M197.281 88.1856L201.03 84.2329" stroke="#D46868" stroke-width="0.42" stroke-linecap="round" stroke-linejoin="round"/>
<path d="M199.367 91.519L203.54 87.1123" stroke="#D46868" stroke-width="0.42" stroke-linecap="round" stroke-linejoin="round"/>
<path d="M203.54 91.364L206.37 88.3711" stroke="#D46868" stroke-width="0.42" stroke-linecap="round" stroke-linejoin="round"/>
<path d="M196.145 54.6448C196.145 54.6448 197.208 58.6078 201.205 60.1765C202.496 60.6821 203.932 60.8369 205.419 60.1765C208.59 58.7832 209.798 56.2444 207.877 53.3651L207.03 52.0957L196.145 54.6448Z" fill="#FC9C9A"/>
<path d="M196.145 54.6446C196.145 54.6446 207.619 58.0193 211.471 52.0955C213.186 49.4638 216.243 50.5784 216.243 50.5784C216.243 50.5784 210.118 44.6443 205.491 44.087C199.666 43.3749 194.73 47.0489 196.145 54.6446Z" fill="black"/>
<path d="M209.033 54.1699C209.033 55.5115 208.197 56.5951 207.174 56.5951C206.152 56.5951 205.315 55.5115 205.315 54.1699C205.315 52.8283 206.152 51.7446 207.174 51.7446C208.197 51.7446 209.033 52.8283 209.033 54.1699Z" fill="#FC9C9A"/>
<path d="M199.904 59.4125C199.904 59.4125 200.007 60.5168 200.544 60.7232C201.081 60.9296 202.052 60.0627 202.052 60.0627L199.904 59.4125Z" fill="#FC9C9A"/>
<path d="M162.828 203.442H185.859C186.344 203.442 186.757 203.101 186.85 202.626C186.912 202.296 186.985 201.956 186.85 201.801C185.425 200.015 183.163 198.88 183.308 196.847H162.311L161.155 201.306C160.876 202.389 161.692 203.442 162.807 203.442H162.828Z" fill="#272525"/>
<path d="M173.951 149.591L164.511 153.729L143.277 150.138L143.215 150.293C143.215 150.293 134.075 160.107 136.946 172.966L128.488 221.203L128.033 223.793C135.872 221.905 149.164 224.392 149.164 224.392C150.341 224.371 155.113 207.704 155.443 195.454C155.577 190.418 160.287 180.252 161.537 177.641C163.416 177.486 165.244 177.043 166.804 176.124L162.342 196.847H186.943L191.033 157.362C190.393 147.857 181.82 147.331 173.961 149.591H173.951Z" fill="#2316B8"/>
<path d="M161.525 177.641C161.525 177.641 150.991 179.241 147.335 171.449" stroke="#272525" stroke-width="0.83" stroke-linecap="round" stroke-linejoin="round"/>
<path d="M169.438 174.607L178.216 166.815" stroke="#272525" stroke-width="0.83" stroke-linecap="round" stroke-linejoin="round"/>
<path d="M154.296 232.865C154.09 232.204 151.281 229.624 151.281 229.624C149.814 228.53 148.802 227.044 149.163 224.402C149.163 224.402 135.872 221.915 128.033 223.804L127 229.614C127.506 226.735 133.909 226.611 136.14 227.88C139.755 229.934 143.349 233.835 146.034 235.476C150.083 235.29 153.191 234.785 153.346 234.733C153.749 234.599 154.617 233.887 154.296 232.844V232.865Z" fill="black"/>
<path d="M146.034 235.486C138.97 235.817 129.055 235.208 127 229.614C127.506 226.745 133.909 226.621 136.14 227.891C139.755 229.955 143.339 233.845 146.034 235.497V235.486Z" fill="#808080"/>
<path d="M173.951 149.591C173.992 149.085 174.023 148.58 174.023 148.084C174.188 135.06 164.79 130.798 164.79 130.798L151.322 129.301L143.267 150.138L164.501 153.729L173.94 149.591H173.951Z" fill="#FEBB05"/>
<path d="M165.172 128.259L164.79 130.798H162.538C164.728 129.198 166.153 126.546 166.153 123.543C166.153 121.097 165.203 118.878 163.664 117.268C164.996 118.207 167.268 120.147 167.506 122.583C167.847 126.061 165.172 128.259 165.172 128.259Z" fill="#FC9C9A"/>
<path d="M157.674 132.408C162.357 132.408 166.153 128.434 166.153 123.532C166.153 118.631 162.357 114.657 157.674 114.657C152.991 114.657 149.195 118.631 149.195 123.532C149.195 128.434 152.991 132.408 157.674 132.408Z" fill="black"/>
<path d="M165.12 125.524C166.455 125.524 167.537 124.443 167.537 123.109C167.537 121.775 166.455 120.694 165.12 120.694C163.785 120.694 162.703 121.775 162.703 123.109C162.703 124.443 163.785 125.524 165.12 125.524Z" fill="#FC9C9A"/>
<path d="M156.547 119.27C156.547 122.397 153.718 124.936 150.227 124.936C146.736 124.936 143.906 122.397 143.906 119.27C143.906 116.143 146.736 113.604 150.227 113.604C153.718 113.604 156.547 116.143 156.547 119.27Z" fill="black"/>
<path d="M163.395 129.26C170.253 120.178 177.131 111.489 180.57 100.477L180.384 102.035C180.425 101.127 180.456 100.219 180.498 99.3209C180.549 98.1651 181.5 97.2569 182.656 97.2569H193.129C193.222 98.8462 193.284 100.446 193.346 102.035C193.346 102.035 193.284 103.088 193.16 103.594C191.487 111.138 188.285 118.145 184.309 124.626C181.148 129.704 176.924 136.412 173.01 140.912C171.265 142.924 157.673 136.845 163.395 129.27V129.26Z" fill="#FC9C9A"/>
<path d="M182.326 99.0526L187.098 95.7914" stroke="#FC9C9A" stroke-width="3.34" stroke-linecap="round" stroke-linejoin="round"/>
<path d="M189.194 98.4746C189.535 98.1031 190.062 97.9689 190.537 97.8244C191.022 97.6696 191.539 97.4426 191.735 96.9781C191.828 96.7614 191.838 96.5137 191.849 96.2764C191.88 95.6468 191.9 95.007 191.931 94.3774" stroke="#FC9C9A" stroke-width="3.34" stroke-linecap="round" stroke-linejoin="round"/>
<path d="M194.235 94.5117C193.976 96.1217 192.541 100.848 191.611 103.325" stroke="#FC9C9A" stroke-width="3.34" stroke-linecap="round" stroke-linejoin="round"/>
<path d="M193.295 93.3042L193.336 96.0081C193.336 96.2764 193.243 96.5344 193.068 96.7305L191.932 97.9999" stroke="#D46868" stroke-width="0.42" stroke-linecap="round" stroke-linejoin="round"/>
<path d="M188.513 96.772L186.798 98.0001" stroke="#D46868" stroke-width="0.42" stroke-linecap="round" stroke-linejoin="round"/>
<path d="M267.789 78.5569L306.3 49.7852L351.501 76.9649" stroke="#B3B3B3" stroke-width="0.83" stroke-linecap="round" stroke-linejoin="round"/>
<path d="M272.586 73.7715H263V83.3503H272.586V73.7715Z" fill="#3CA54E"/>
<path d="M311.097 45H301.511V54.5789H311.097V45Z" fill="#EA4235"/>
<path d="M356.297 72.1709H346.711V81.7498H356.297V72.1709Z" fill="#4286F5"/>
<path d="M326.211 78.5742L336.554 98.2069L337.179 89.7979L345.427 87.8452L326.211 78.5742Z" fill="#FEBB05"/>
</svg>
