<svg width="430" height="250" viewBox="0 0 430 250" fill="none" xmlns="http://www.w3.org/2000/svg">
<path d="M0 0H430V250H0V0Z" fill="#2E2E2E"/>
<mask id="mask0_496_440" style="mask-type:alpha" maskUnits="userSpaceOnUse" x="0" y="0" width="430" height="250">
<path d="M0 0H390C412.091 0 430 17.9086 430 40V250H0V0Z" fill="#383838"/>
</mask>
<g mask="url(#mask0_496_440)">
<path d="M190 58V257" stroke="#E548A4" stroke-width="5" stroke-linecap="round"/>
<path d="M189.5 78H137.5" stroke="#E548A4" stroke-width="5"/>
<path d="M190 116H138" stroke="#E548A4" stroke-width="5"/>
<path d="M190 154H138" stroke="#E548A4" stroke-width="5"/>
<path d="M189 192H137" stroke="#E548A4" stroke-width="5"/>
<path d="M189 230H137" stroke="#E548A4" stroke-width="5"/>
<path d="M138 58V257" stroke="#E548A4" stroke-width="5" stroke-linecap="round"/>
<path d="M195.095 242.608C193.163 242.608 191.204 242.166 189.365 241.237C183.074 238.058 180.547 230.374 183.718 224.069L195.916 199.812C201.54 191.977 206.755 190.974 213.045 194.153C219.336 197.332 221.863 205.016 218.692 211.321L206.494 235.578C204.253 240.039 199.758 242.612 195.095 242.612V242.608Z" fill="#41446D"/>
<path d="M272.144 232.381L248.931 177.74L206.644 192.026C200.119 194.25 196.846 201.55 199.511 207.917L219 255.5C248.649 262.031 281 251.5 281 251.5L272.144 232.381Z" fill="#41446D"/>
<path d="M195.118 242.604C190.733 242.604 186.467 240.335 184.094 236.272L166.338 205.834C162.782 199.741 164.829 191.911 170.912 188.347C176.996 184.783 182.872 188.197 186.427 194.294L206.12 223.37C209.675 229.463 207.628 237.293 201.545 240.857C199.52 242.042 197.306 242.608 195.118 242.608V242.604Z" fill="#FC9C9A"/>
<path d="M179.378 215.539L200.301 214.783L192.833 203.752L179.378 215.539Z" fill="#D46868"/>
<path d="M203.887 208.266L182.187 214.531C181.01 214.872 179.77 214.24 179.351 213.081L167.409 179.999C166.951 178.73 167.661 177.333 168.958 176.962L190.657 170.696C191.835 170.356 193.075 170.988 193.494 172.147L205.431 205.228C205.89 206.497 205.179 207.895 203.882 208.266H203.887Z" fill="#165BB8"/>
<path d="M202.334 208.752L180.635 215.018C179.457 215.358 178.217 214.726 177.798 213.568L165.857 180.481C165.398 179.212 166.108 177.815 167.405 177.444L189.104 171.178C190.282 170.838 191.522 171.47 191.941 172.629L203.878 205.71C204.337 206.979 203.627 208.377 202.33 208.748L202.334 208.752Z" fill="#4286F5"/>
<mask id="mask1_496_440" style="mask-type:luminance" maskUnits="userSpaceOnUse" x="165" y="171" width="40" height="45">
<path d="M202.334 208.752L180.635 215.018C179.457 215.358 178.217 214.726 177.798 213.568L165.857 180.481C165.398 179.212 166.108 177.815 167.405 177.444L189.104 171.178C190.282 170.838 191.522 171.47 191.941 172.629L203.878 205.71C204.337 206.979 203.627 208.377 202.33 208.748L202.334 208.752Z" fill="white"/>
</mask>
<g mask="url(#mask1_496_440)">
<path d="M182.536 172.041L196.97 210.892" stroke="white" stroke-width="1.2" stroke-linecap="round" stroke-linejoin="round"/>
<path d="M173.687 173.995L188.121 212.842" stroke="white" stroke-width="1.2" stroke-linecap="round" stroke-linejoin="round"/>
</g>
<path d="M177.181 194.537L170.366 195.656C168.8 195.912 167.322 194.847 167.061 193.277C166.806 191.707 167.869 190.226 169.435 189.965L176.25 188.847C177.816 188.59 179.294 189.656 179.554 191.226C179.81 192.795 178.747 194.276 177.181 194.537Z" fill="#FC9C9A"/>
<path d="M178.69 200.728L170.313 202.098C168.747 202.355 167.269 201.289 167.009 199.72C166.753 198.15 167.816 196.669 169.382 196.408L177.759 195.037C179.325 194.781 180.803 195.846 181.063 197.416C181.319 198.986 180.256 200.467 178.69 200.728Z" fill="#FC9C9A"/>
<path d="M179.223 207.077L172.408 208.195C170.842 208.452 169.364 207.386 169.103 205.817C168.848 204.247 169.911 202.766 171.477 202.505L178.292 201.386C179.858 201.13 181.336 202.195 181.596 203.765C181.852 205.335 180.789 206.816 179.223 207.077Z" fill="#FC9C9A"/>
<path d="M179.81 213.497L173.308 214.562C171.812 214.805 170.405 213.793 170.158 212.294C169.915 210.795 170.926 209.385 172.421 209.137L178.923 208.072C180.419 207.828 181.826 208.841 182.073 210.34C182.316 211.839 181.306 213.249 179.81 213.497Z" fill="#FC9C9A"/>
<path d="M234.528 175.604C234.528 181.901 229.217 186.017 222.67 186.017C216.124 186.017 209.983 180.941 209.983 174.64C209.983 168.34 216.12 164.201 222.67 164.201C229.221 164.201 234.528 169.304 234.528 175.604Z" fill="black"/>
<path d="M211.506 169.374C210.143 171.293 208.757 173.323 207.5 175.432C205.184 179.323 206.547 184.363 210.473 186.609L213.178 188.153L213.663 194.975C217.179 196.934 224.801 194.245 229.561 188.966L227.572 182.665C227.572 182.665 230.973 167.141 216.345 166.885C214.422 166.85 212.613 167.805 211.501 169.374H211.506Z" fill="#FC9C9A"/>
<path d="M213.182 188.153C217.721 188.564 222.256 184.845 222.256 184.845L213.592 193.918L213.182 188.153Z" fill="#D46868"/>
<path d="M221.048 167.394C220.13 174.972 224.299 172.094 224.572 175.901L229.129 175.109L224.974 168.411L221.048 167.394Z" fill="black"/>
<path d="M227.557 182.171C229.426 181.4 230.318 179.255 229.548 177.381C228.778 175.506 226.638 174.613 224.768 175.384C222.899 176.156 222.007 178.301 222.777 180.175C223.547 182.049 225.687 182.943 227.557 182.171Z" fill="#FC9C9A"/>
<path d="M210.897 171.249C210.897 171.249 208.775 170.612 208.286 171.652C207.796 172.686 209.088 174.048 209.088 174.048L210.897 171.249Z" fill="#FC9C9A"/>
<path d="M290.001 172.377L272.272 148.916C268.019 143.287 260.017 142.182 254.401 146.444C254.044 146.714 253.704 147.006 253.382 147.307L243.501 142.766C242.182 142.16 240.62 142.646 239.879 143.893C239.165 145.091 239.425 146.635 240.492 147.532L245.53 151.777C245.53 151.777 248.124 159.567 253.546 162.017C253.925 162.844 259.223 173.995 259.223 173.995L243.801 179.61C237.179 182.02 233.761 189.355 236.165 195.992C238.048 201.187 242.941 204.415 248.155 204.415C249.602 204.415 251.071 204.167 252.509 203.646L284.191 192.114C287.998 190.73 290.923 187.613 292.07 183.718C293.217 179.822 292.449 175.613 290.005 172.377H290.001Z" fill="#FC9C9A"/>
<path d="M251.932 150.676C251.932 150.676 258.213 153.218 258.597 158.864" stroke="#D46868" stroke-width="1.2" stroke-miterlimit="10"/>
<path d="M259.224 173.995L243.802 179.61C237.18 182.02 232.963 189.731 235.367 196.368C237.251 201.563 242.143 204.791 247.357 204.791C248.804 204.791 250.273 204.543 251.711 204.021L272.409 196.399L259.228 173.995H259.224Z" fill="#41446D"/>
<path d="M223.311 142.466C235.703 130.046 235.703 109.909 223.311 97.4888C210.92 85.0686 190.829 85.0686 178.437 97.4888C166.045 109.909 166.045 130.046 178.437 142.466C190.829 154.887 210.92 154.887 223.311 142.466Z" fill="url(#paint0_linear_496_440)"/>
<path d="M223.311 142.466C235.703 130.046 235.703 109.909 223.311 97.4888C210.92 85.0686 190.829 85.0686 178.437 97.4888C166.045 109.909 166.045 130.046 178.437 142.466C190.829 154.887 210.92 154.887 223.311 142.466Z" stroke="#165BB8" stroke-width="9.64" stroke-linecap="round" stroke-linejoin="round"/>
<path d="M242.712 140.971L276.115 157.732" stroke="black" stroke-width="12.05" stroke-linecap="round" stroke-linejoin="round"/>
<path d="M229.253 134.215L242.712 140.971" stroke="#165BB8" stroke-width="9.64" stroke-linecap="round" stroke-linejoin="round"/>
<path d="M254.829 136.195L251.163 142.063C250.321 143.411 248.547 143.818 247.198 142.974C245.852 142.129 245.446 140.352 246.289 138.999L249.955 133.131C250.797 131.783 252.571 131.376 253.92 132.22C255.266 133.065 255.672 134.842 254.829 136.195Z" fill="#FC9C9A"/>
<path d="M260.617 138.897L256.109 146.108C255.266 147.457 253.493 147.864 252.143 147.019C250.797 146.175 250.392 144.397 251.234 143.044L255.743 135.833C256.585 134.484 258.358 134.077 259.708 134.922C261.054 135.766 261.46 137.544 260.617 138.897Z" fill="#FC9C9A"/>
<path d="M265.726 142.691L262.06 148.558C261.217 149.906 259.444 150.313 258.094 149.469C256.749 148.624 256.343 146.847 257.185 145.494L260.851 139.626C261.694 138.278 263.467 137.871 264.817 138.716C266.162 139.56 266.568 141.338 265.726 142.691Z" fill="#FC9C9A"/>
<path d="M270.922 146.489L267.424 152.082C266.621 153.369 264.927 153.758 263.643 152.953C262.36 152.148 261.972 150.45 262.774 149.164L266.273 143.57C267.076 142.284 268.769 141.895 270.053 142.699C271.337 143.504 271.725 145.202 270.922 146.489Z" fill="#FC9C9A"/>
<path d="M261.25 108.76H255V115.01H261.25V108.76Z" fill="#FEBB05"/>
<path d="M289.64 102.11H278.79V112.96H289.64V102.11Z" fill="#EA4235"/>
<path d="M313.04 75H296.07V91.97H313.04V75Z" fill="#BD231E"/>
</g>
<defs>
<linearGradient id="paint0_linear_496_440" x1="189.74" y1="97.4326" x2="214.601" y2="147.536" gradientUnits="userSpaceOnUse">
<stop stop-color="white" stop-opacity="0.7"/>
<stop offset="0.17" stop-color="#F9F9F9" stop-opacity="0.3136"/>
<stop offset="0.39" stop-color="#F3F3F3" stop-opacity="0.1681"/>
<stop offset="0.59" stop-color="#EEEEEE" stop-opacity="0.0841"/>
<stop offset="0.76" stop-color="#EBEBEB" stop-opacity="0.0484"/>
<stop offset="0.88" stop-color="#EBEBEB" stop-opacity="0.2"/>
</linearGradient>
</defs>
</svg>
