<svg width="378" height="350" viewBox="0 0 378 350" fill="none" xmlns="http://www.w3.org/2000/svg">
<g opacity="0.15">
<path d="M149.85 200.266L119.525 242.959C119.525 242.959 114.869 283.791 124.32 280.477C133.771 277.163 148.573 261.963 148.573 261.963L149.85 200.266Z" fill="#212123"/>
<path d="M97.4102 209.69L124.625 190.389L134.669 263.204C135.65 269.119 133.132 275.071 128.198 278.478C118.636 285.087 105.482 279.2 104.038 267.666L97.4102 209.69Z" fill="#212123"/>
<path d="M249.49 88.1379L207.381 181.799C207.381 181.799 211.704 225.047 235.42 227.556L278.761 102.967C278.761 102.967 278.372 97.3763 266.023 91.0168C254.6 85.1387 249.5 88.1287 249.5 88.1287L249.49 88.1379Z" fill="#212123"/>
<path d="M124.255 181.725C124.255 181.725 124.264 192.722 120.024 195.777C120.024 195.777 120.339 202.793 112.628 204.173C104.908 205.552 98.863 192.639 98.863 192.639L97.7429 184.215L103.427 176.55L124.273 181.725H124.255Z" fill="#212123"/>
<path d="M112.73 213.615L101.094 211.291C101.094 211.291 101.02 211.236 101.029 211.199L108.073 163.359L119.867 165.72L112.822 213.559C112.822 213.559 112.767 213.633 112.73 213.624V213.615Z" fill="#212123"/>
<path d="M96.9284 186.622C96.9284 186.622 106.019 189.121 107.315 188.306C108.611 187.492 109.434 184.955 107.352 182.947C105.269 180.938 97.1135 178.846 97.1135 178.846C97.1135 178.846 93.7625 177.707 92.7165 181.169C91.6705 184.622 95.6139 186.279 96.9284 186.622Z" fill="#212123"/>
<path d="M98.6408 195.564C98.6408 195.564 107.731 198.063 109.027 197.249C110.323 196.434 111.147 193.898 109.064 191.889C106.981 189.88 98.826 187.788 98.826 187.788C98.826 187.788 94.7715 186.483 93.9198 190.315C93.0682 194.148 98.6408 195.564 98.6408 195.564Z" fill="#212123"/>
<path d="M99.7512 205.441C99.7512 205.441 108.777 205.968 109.943 204.858C111.1 203.737 112.711 200.72 110.267 199.174C107.823 197.628 100.057 196.952 100.057 196.952C100.057 196.952 96.3446 196.341 95.4745 199.489C94.6043 202.636 96.6871 204.885 99.7604 205.441H99.7512Z" fill="#212123"/>
<path d="M97.1322 178.022C97.1322 178.022 106.667 180.771 108.222 179.92C109.777 179.077 111.11 176.402 109.175 174.245C107.241 172.098 98.6596 169.783 98.6596 169.783C98.6596 169.783 96.7712 168.052 94.4477 170.32C92.1243 172.588 92.5964 175.828 97.1415 178.022H97.1322Z" fill="#212123"/>
<path d="M98.6593 169.793C98.6593 169.793 107.24 172.107 109.175 174.254C111.11 176.402 109.777 179.077 108.222 179.929C106.667 180.771 97.132 178.031 97.132 178.031" fill="#212123"/>
<path d="M107.203 180.494C104.361 180.494 98.3812 178.818 97.0205 178.429C96.7983 178.365 96.6687 178.133 96.7335 177.911C96.7983 177.689 97.0297 177.569 97.2519 177.624C100.871 178.67 107.009 180.123 108.027 179.559C108.712 179.189 109.48 178.3 109.675 177.152C109.786 176.495 109.739 175.495 108.86 174.523C107.027 172.487 98.6312 170.209 98.5386 170.182C98.3164 170.126 98.1868 169.895 98.2424 169.672C98.2979 169.45 98.5293 169.321 98.7515 169.376C99.1033 169.469 107.471 171.746 109.471 173.958C110.573 175.18 110.628 176.439 110.48 177.282C110.267 178.531 109.452 179.707 108.406 180.272C108.147 180.41 107.721 180.475 107.184 180.475L107.203 180.494Z" fill="#212123"/>
<path d="M106.342 188.871C103.695 188.871 98.1036 187.381 96.8261 187.029C96.604 186.964 96.4744 186.742 96.5392 186.52C96.604 186.298 96.8261 186.168 97.0483 186.233C101.427 187.436 106.388 188.418 107.101 187.964C107.684 187.603 108.11 186.835 108.194 186.029C108.268 185.335 108.129 184.289 107.073 183.262C105.102 181.355 97.1038 179.281 97.0205 179.263C96.7984 179.207 96.6688 178.976 96.7243 178.754C96.7798 178.531 97.0113 178.402 97.2334 178.457C97.5667 178.541 105.518 180.605 107.657 182.66C108.675 183.641 109.156 184.863 109.027 186.113C108.916 187.187 108.351 188.168 107.546 188.668C107.314 188.816 106.888 188.881 106.351 188.881L106.342 188.871Z" fill="#212123"/>
<path d="M108.055 197.813C105.408 197.813 99.8165 196.323 98.539 195.971C98.3169 195.906 98.1873 195.684 98.2521 195.462C98.3169 195.24 98.539 195.11 98.7612 195.175C103.14 196.378 108.101 197.35 108.814 196.906C109.397 196.545 109.823 195.786 109.906 194.971C109.981 194.277 109.842 193.231 108.786 192.203C106.815 190.297 98.8167 188.223 98.7334 188.205C98.5112 188.149 98.3817 187.918 98.4372 187.695C98.4927 187.473 98.7242 187.334 98.9463 187.399C99.2796 187.482 107.231 189.547 109.37 191.602C110.388 192.583 110.869 193.805 110.74 195.055C110.628 196.128 110.064 197.11 109.258 197.609C109.027 197.758 108.601 197.822 108.064 197.822L108.055 197.813Z" fill="#212123"/>
<path d="M104.167 205.987C102.214 205.987 100.391 205.894 99.7241 205.857C99.4927 205.848 99.3168 205.644 99.3353 205.422C99.3446 205.191 99.5482 205.015 99.7704 205.034C103.445 205.246 108.935 205.246 109.647 204.561C110.286 203.95 111.24 202.488 111.11 201.164C111.045 200.488 110.684 199.933 110.036 199.526C107.713 198.045 100.085 197.378 100.011 197.369C99.7796 197.35 99.613 197.147 99.6315 196.915C99.65 196.684 99.8444 196.508 100.085 196.536C100.409 196.563 107.99 197.23 110.49 198.822C111.351 199.368 111.851 200.146 111.943 201.081C112.11 202.71 111.008 204.413 110.231 205.163C109.536 205.839 106.741 205.996 104.167 205.996V205.987Z" fill="#212123"/>
<path d="M117.099 177.263C117.099 177.263 113.23 186.399 113.887 188.047C114.544 189.695 117.043 191.333 119.404 189.667C121.764 188.001 125.088 179.753 125.088 179.753C125.088 179.753 127.032 178.087 125.06 175.504C123.088 172.921 119.82 173.014 117.099 177.254V177.263Z" fill="#212123"/>
<path d="M125.097 179.762C125.097 179.762 121.783 188.01 119.414 189.676C117.044 191.343 114.544 189.704 113.896 188.056C113.239 186.409 117.109 177.272 117.109 177.272" fill="#212123"/>
<path d="M117.34 190.787C116.923 190.787 116.544 190.713 116.229 190.621C115.016 190.26 113.942 189.306 113.507 188.205C112.822 186.483 116.062 178.661 116.72 177.106C116.812 176.893 117.053 176.791 117.266 176.883C117.479 176.976 117.58 177.217 117.488 177.43C116.016 180.901 113.85 186.816 114.285 187.899C114.572 188.621 115.359 189.491 116.47 189.824C117.108 190.019 118.108 190.084 119.173 189.334C121.413 187.76 124.68 179.688 124.708 179.605C124.792 179.392 125.041 179.29 125.245 179.373C125.458 179.457 125.56 179.697 125.476 179.91C125.338 180.253 122.088 188.288 119.645 190.01C118.812 190.593 118.015 190.787 117.33 190.787H117.34Z" fill="#212123"/>
<path d="M183.897 137.912C183.897 137.912 177.685 140.004 170.289 136.005C161.949 131.506 159.801 149.881 171.65 153.084C179.092 155.093 184.184 142.022 184.184 142.022L183.897 137.912Z" fill="#212123"/>
<path d="M155.404 310.053L156.774 490.034L197.801 490.765L199.847 331.603L169.512 310.368L155.404 310.053Z" fill="#212123"/>
<path d="M240.206 308.562L260.386 487.599L220.369 488.728L194.487 342.572L169.512 310.367L240.206 308.562Z" fill="#212123"/>
<path d="M220.368 489.145C220.174 489.145 219.998 489.007 219.961 488.803L194.097 342.748L169.187 310.627C169.048 310.442 169.076 310.182 169.261 310.044C169.446 309.905 169.705 309.933 169.844 310.118L194.819 342.322C194.856 342.378 194.884 342.443 194.903 342.507L220.785 488.664C220.822 488.886 220.674 489.108 220.452 489.145C220.424 489.145 220.405 489.145 220.378 489.145H220.368Z" fill="#212123"/>
<path d="M198.124 186.233L177.13 190.593L177.019 167.33L195.921 163.405L198.124 186.233Z" fill="#212123"/>
<path d="M177.028 174.107L189.34 172.561L177.269 181.188L177.028 174.107Z" fill="#212123"/>
<path d="M200.105 156.768C199.031 163.757 194.153 170.376 187.275 173.227C178.101 177.041 168.854 172.709 166.614 163.554C164.383 154.399 170.002 143.892 179.175 140.078C179.638 139.884 180.092 139.717 180.554 139.569C189.256 136.718 197.707 141.059 199.836 149.752C200.401 152.047 200.466 154.426 200.105 156.768Z" fill="#212123"/>
<path d="M199.29 161.415C181.628 156.972 178.916 142.374 178.24 139.328C188.302 135.681 199.318 137.968 201.179 148.576C202.114 153.889 200.679 158.777 199.29 161.424V161.415Z" fill="#212123"/>
<path d="M203.688 161.795C203.512 165.461 200.281 168.46 196.477 168.488C192.672 168.515 189.738 165.562 189.914 161.897C190.09 158.231 193.32 155.232 197.125 155.204C200.929 155.176 203.864 158.129 203.688 161.795Z" fill="#212123"/>
<path d="M193.524 164.803C193.394 164.803 193.265 164.757 193.163 164.664C192.339 163.85 191.913 162.767 191.959 161.6C192.006 160.434 192.524 159.332 193.413 158.499C194.301 157.666 195.449 157.194 196.662 157.175C196.671 157.175 196.69 157.175 196.699 157.175C197.893 157.175 198.995 157.601 199.809 158.407C200.004 158.601 199.994 158.916 199.782 159.11C199.569 159.304 199.245 159.314 199.05 159.119C198.421 158.499 197.56 158.175 196.625 158.175C195.699 158.194 194.801 158.555 194.126 159.193C193.441 159.841 193.043 160.684 193.005 161.582C192.968 162.48 193.302 163.313 193.931 163.942C194.126 164.137 194.116 164.451 193.903 164.646C193.802 164.748 193.663 164.794 193.524 164.794V164.803Z" fill="#212123"/>
<path d="M172.288 155.111C172.261 155.713 171.724 156.204 171.104 156.213C170.474 156.213 169.993 155.731 170.021 155.13C170.048 154.528 170.585 154.037 171.205 154.028C171.835 154.028 172.316 154.51 172.288 155.111Z" fill="#212123"/>
<path d="M179.444 156.685C179.416 157.287 178.879 157.777 178.259 157.787C177.63 157.787 177.148 157.305 177.176 156.703C177.204 156.102 177.741 155.611 178.361 155.602C178.99 155.602 179.472 156.083 179.444 156.685Z" fill="#212123"/>
<path d="M175.204 160.175C175.139 160.175 175.084 160.165 175.028 160.147C174.001 159.777 172.936 159.48 171.862 159.268C171.705 159.24 171.575 159.129 171.511 158.99C171.446 158.851 171.464 158.684 171.548 158.546C172.76 156.565 173.964 154.574 175.176 152.593C175.324 152.353 175.648 152.26 175.889 152.39C176.139 152.519 176.213 152.825 176.065 153.065C174.973 154.852 173.88 156.639 172.788 158.434C173.686 158.647 174.575 158.907 175.436 159.212C175.704 159.305 175.824 159.592 175.713 159.851C175.63 160.054 175.417 160.175 175.213 160.184L175.204 160.175Z" fill="#212123"/>
<path d="M173.474 161.452L179.861 159.86C179.861 159.86 179.241 164.192 177.75 164.599C176.269 165.007 173.474 161.461 173.474 161.461V161.452Z" fill="#212123"/>
<path d="M184.97 188.63L176.833 185.316L173.927 190.667L178.305 199.896L184.97 188.63Z" fill="#212123"/>
<path d="M184.971 188.63L197.218 178.429L200.633 183.511L192.395 194.925L184.971 188.63Z" fill="#212123"/>
<path d="M200.3 183.604L203.549 183.16C203.549 183.16 192.459 251.392 184.591 255.632C184.045 255.928 183.461 255.789 182.86 255.289C176.787 250.207 168.484 207.69 170.65 191.796C170.067 192.009 169.308 192.259 168.401 192.565C171.659 191.398 173.908 190.658 173.908 190.658L200.624 183.502L200.29 183.595L200.3 183.604Z" fill="#212123"/>
<path d="M181.314 202.914C179.083 211.374 175.889 239.386 175.676 257.649C175.473 275.913 175.676 290.845 175.676 290.845L185.868 302.786L193.986 284.642C193.986 284.642 188.386 258.427 187.645 233.989C186.896 209.542 187.062 201.562 187.062 201.562L181.305 202.914H181.314Z" fill="#212123"/>
<path d="M243.631 323.419L150.738 331.26L146.49 280.495L144.499 256.752L144.314 254.53L143.703 252.021C137.853 245.69 145.184 203.201 149.85 200.266C150.405 199.914 151.016 199.563 151.646 199.22C151.673 199.202 151.71 199.183 151.738 199.165C156.718 196.489 163.828 194.11 168.132 192.666C168.215 192.629 168.317 192.602 168.401 192.574C169.298 192.268 170.058 192.018 170.65 191.805C168.484 207.699 176.787 250.216 182.86 255.298C183.461 255.798 184.035 255.937 184.591 255.641C192.459 251.392 203.549 183.169 203.549 183.169L200.3 183.613L200.633 183.53L225.617 178.059L231.079 176.865V176.985L243.64 323.429L243.631 323.419Z" fill="#212123"/>
<path d="M168.141 192.667C163.494 194.324 156.903 196.795 151.747 199.165C156.727 196.49 163.837 194.111 168.141 192.667Z" fill="#212123"/>
<path d="M179.777 195.11L181.406 201.618L187.164 200.266L189.414 192.398L185.137 189.677L179.777 195.11Z" fill="#212123"/>
<path d="M150.747 331.677C150.535 331.677 150.349 331.51 150.331 331.297L143.907 254.576L143.333 252.234C140.102 248.522 140.88 234.739 142.694 223.01C142.731 222.779 142.944 222.631 143.166 222.659C143.397 222.696 143.546 222.909 143.518 223.131C141.259 237.738 141.454 248.967 144.018 251.744C144.064 251.799 144.101 251.855 144.12 251.929L144.73 254.438L151.164 331.223C151.182 331.455 151.016 331.658 150.784 331.677C150.775 331.677 150.757 331.677 150.747 331.677Z" fill="#212123"/>
<path d="M175.177 201.368C175.13 201.386 175.075 201.396 175.029 201.396C174.871 201.396 174.751 201.322 174.705 201.183C173.705 198.008 173.233 194.509 173.316 190.778C173.316 190.5 173.557 190.186 173.844 190.074C174.149 189.954 174.353 190.102 174.353 190.389C174.279 193.777 174.668 196.98 175.519 199.905C178.731 196.388 181.879 192.759 184.896 189.112C185.119 188.843 185.443 188.741 185.628 188.88C185.813 189.019 185.785 189.343 185.563 189.612C182.332 193.518 178.953 197.397 175.51 201.146C175.417 201.248 175.297 201.331 175.186 201.368H175.177Z" fill="#212123"/>
<path d="M193.524 195.369C193.394 195.416 193.274 195.416 193.191 195.369C190.275 193.796 187.563 191.88 185.137 189.686C184.971 189.528 185.017 189.195 185.239 188.945C185.47 188.686 185.794 188.603 185.961 188.76C188.238 190.815 190.765 192.62 193.478 194.129C195.505 190.704 197.671 187.279 199.92 183.956C200.115 183.678 200.439 183.53 200.652 183.622C200.865 183.724 200.883 184.03 200.689 184.317C198.328 187.807 196.06 191.398 193.95 194.999C193.857 195.147 193.728 195.277 193.58 195.351C193.561 195.36 193.533 195.369 193.515 195.379L193.524 195.369Z" fill="#212123"/>
<path d="M181.675 152.991C181.12 152.991 180.74 152.908 180.296 152.778C179.852 152.64 179.389 152.501 178.88 152.186H178.861C178.648 152.047 178.584 151.76 178.713 151.557C178.759 151.482 178.824 151.427 178.889 151.39C179.454 151.103 180.065 151.075 180.666 151.177C180.972 151.233 181.268 151.344 181.546 151.51C181.814 151.686 182.073 151.918 182.221 152.242C182.342 152.51 182.221 152.825 181.962 152.945C181.897 152.973 181.823 152.991 181.749 152.991H181.675Z" fill="#212123"/>
<path d="M174.436 151.094C173.881 151.094 173.501 151.011 173.057 150.881C172.612 150.742 172.149 150.603 171.64 150.288H171.622C171.409 150.15 171.344 149.863 171.474 149.659C171.52 149.585 171.585 149.529 171.65 149.492C172.214 149.205 172.825 149.178 173.427 149.289C173.732 149.344 174.029 149.455 174.306 149.622C174.575 149.798 174.834 150.029 174.982 150.353C175.102 150.622 174.982 150.936 174.723 151.057C174.658 151.085 174.584 151.103 174.51 151.103H174.436V151.094Z" fill="#212123"/>
<g style="mix-blend-mode:color-dodge">
<path d="M182.87 255.289C171.789 251.67 157.682 221.928 157.682 221.928L168.318 214.615L157.682 201.081L170.66 191.797C168.494 207.691 176.797 250.207 182.87 255.289Z" fill="#212123"/>
</g>
<g style="mix-blend-mode:color-dodge">
<path d="M202.373 206.912L215.055 209.393C215.055 209.393 198.041 251.901 184.6 255.631C192.468 251.382 203.558 183.159 203.558 183.159L215.055 186.677L202.373 206.912Z" fill="#212123"/>
</g>
<path d="M192.126 328.178C191.913 328.178 191.737 328.02 191.709 327.807L184.183 255.678C184.156 255.446 184.322 255.243 184.554 255.224C184.776 255.196 184.989 255.363 185.007 255.594L192.533 327.724C192.561 327.955 192.394 328.159 192.163 328.178C192.144 328.178 192.135 328.178 192.117 328.178H192.126Z" fill="#212123"/>
<path d="M277.89 103.199C277.576 103.523 276.317 103.893 274.225 103.874C271.337 103.847 266.828 103.078 261.034 100.366C256.424 98.2184 253.434 95.7375 251.712 93.5807C249.712 91.0813 249.435 89.0448 250.323 88.5079C251.073 88.0544 258.636 86.7769 267.291 91.6923C269.707 93.0623 271.651 94.5064 273.197 95.8857C274.271 96.8669 275.15 97.8111 275.854 98.672C277.714 100.986 278.27 102.782 277.872 103.189L277.89 103.199Z" fill="#212123"/>
<path d="M276.363 97.1445L275.873 98.6812L274.234 103.874C271.346 103.846 266.838 103.078 261.043 100.366C256.433 98.2183 253.443 95.7375 251.722 93.5806L253.916 88.2579L273.207 95.8856L276.354 97.1353L276.363 97.1445Z" fill="#212123"/>
<path d="M288.5 80.3619L263.256 65.8009L254.61 81.7412C252.037 86.1938 253.925 90.276 258.331 94.0436C262.738 97.8111 267.357 98.9497 267.357 98.9497C272.467 100.616 278.049 98.4869 280.733 93.8307L288.5 80.3712V80.3619Z" fill="#212123"/>
<path d="M268.18 52.1564C266.403 51.8972 264.755 53.1377 264.496 54.915L262.136 71.3459L268.569 72.2716L270.93 55.8407C271.189 54.0634 269.949 52.4156 268.171 52.1564H268.18Z" fill="#212123"/>
<path d="M253.258 63.1721C251.509 63.5794 250.426 65.329 250.833 67.0785L254.6 83.241L260.932 81.7599L257.165 65.5974C256.757 63.8479 255.008 62.7648 253.258 63.1721Z" fill="#212123"/>
<path d="M280.196 53.7766C278.511 53.1471 276.641 54.008 276.012 55.6928L270.235 71.2535L276.335 73.5215L282.112 57.9607C282.741 56.276 281.88 54.4061 280.196 53.7766Z" fill="#212123"/>
<path d="M289.027 59.4693C287.471 58.5714 285.481 59.1083 284.583 60.6635L276.289 75.0394L281.927 78.2885L290.221 63.9126C291.119 62.3575 290.582 60.3673 289.027 59.4693Z" fill="#212123"/>
<path d="M295.617 70.263C294.368 68.9671 292.312 68.9301 291.017 70.1797L279.057 81.6953L283.565 86.3792L295.525 74.8637C296.821 73.614 296.858 71.559 295.608 70.263H295.617Z" fill="#212123"/>
<path d="M267.365 98.9409C272.475 100.607 278.057 98.4781 280.741 93.8219L267.365 98.9409Z" fill="#212123"/>
<path d="M270.864 99.9124C269.652 99.9124 268.43 99.7273 267.236 99.3385C267.013 99.2644 266.893 99.033 266.967 98.8109C267.041 98.5887 267.273 98.4683 267.495 98.5424C272.382 100.144 277.807 98.0703 280.38 93.6085C280.491 93.4048 280.751 93.34 280.945 93.4604C281.149 93.5715 281.213 93.8307 281.093 94.025C278.955 97.737 274.984 99.9124 270.855 99.9124H270.864Z" fill="#212123"/>
<path d="M266.773 68.5597C266.773 68.5597 277.965 71.7996 284.065 79.2791L266.773 68.5597Z" fill="#212123"/>
<path d="M284.065 79.6954C283.945 79.6954 283.825 79.6398 283.741 79.538C277.789 72.2436 266.764 68.9852 266.653 68.9574C266.431 68.8926 266.302 68.6612 266.366 68.439C266.431 68.2169 266.663 68.0873 266.885 68.1521C266.996 68.1891 278.271 71.5123 284.389 79.0104C284.538 79.1863 284.51 79.4547 284.334 79.5936C284.26 79.6584 284.167 79.6861 284.075 79.6861L284.065 79.6954Z" fill="#212123"/>
<path d="M257.165 65.5973L259.109 73.4656C259.109 73.4656 267.931 78.6587 266.153 90.2205" fill="#212123"/>
<path d="M266.153 90.6373C266.153 90.6373 266.107 90.6373 266.088 90.6373C265.866 90.6002 265.709 90.3873 265.737 90.1652C267.449 79.0199 258.979 73.8823 258.896 73.8361C258.803 73.7805 258.729 73.6879 258.701 73.5769L256.757 65.7085C256.702 65.4864 256.841 65.2642 257.063 65.2087C257.285 65.1531 257.507 65.292 257.563 65.5141L259.46 73.2158C260.645 73.9934 268.217 79.4457 266.551 90.2948C266.523 90.4984 266.338 90.6465 266.144 90.6465L266.153 90.6373Z" fill="#212123"/>
<path d="M275.419 87.3788C275.419 87.3788 270.809 88.8784 268.921 92.6274L275.419 87.3788Z" fill="#212123"/>
<path d="M268.921 93.0442C268.856 93.0442 268.791 93.0257 268.735 92.9979C268.532 92.8961 268.448 92.6461 268.55 92.4425C270.494 88.5824 275.095 87.0458 275.289 86.981C275.511 86.9069 275.743 87.0272 275.817 87.2494C275.891 87.4716 275.771 87.703 275.548 87.777C275.502 87.7956 271.077 89.2767 269.291 92.822C269.217 92.9701 269.069 93.0535 268.921 93.0535V93.0442Z" fill="#212123"/>
<path d="M142.333 160.962C140.306 168.487 137.251 174.208 135.511 173.736C133.762 173.264 133.993 166.784 136.011 159.258C138.038 151.733 141.093 146.012 142.833 146.484C144.583 146.956 144.351 153.436 142.333 160.962Z" fill="#212123"/>
<path d="M125.134 146.16L142.833 146.484L135.501 173.736L119.959 165.396L125.134 146.16Z" fill="#212123"/>
<path d="M80.8025 115.131L125.134 146.16L119.959 165.396L66.1211 169.746L80.8025 115.131Z" fill="#212123"/>
<path d="M79.803 144.142C75.7485 159.221 69.6205 170.691 66.1214 169.746C62.6223 168.802 63.0666 155.815 67.1304 140.726C71.1849 125.647 77.3129 114.177 80.812 115.122C84.3111 116.066 83.8668 129.053 79.803 144.142Z" fill="#212123"/>
<path d="M133.78 257.159C133.577 257.159 133.401 257.011 133.373 256.798L124.357 191.417C124.329 191.185 124.486 190.982 124.708 190.945C124.94 190.908 125.144 191.074 125.181 191.297L134.197 256.678C134.225 256.909 134.067 257.113 133.845 257.15C133.826 257.15 133.808 257.15 133.789 257.15L133.78 257.159Z" fill="#212123"/>
<path d="M352.908 137.56C352.908 137.56 347.539 133.034 339.625 138.236C331.71 143.448 331.886 154.232 339.393 156C346.901 157.777 355.602 141.106 355.602 141.106L352.908 137.56Z" fill="#212123"/>
<path d="M324.045 293.437C324.045 293.437 284.056 308.109 264.116 295.529C244.177 282.949 283.148 269.924 283.148 269.924L325.369 273.331L324.045 293.437Z" fill="#212123"/>
<path d="M328.008 308.035L329.378 488.016L370.404 488.747L372.45 329.585L342.125 308.35L328.008 308.035Z" fill="#212123"/>
<path d="M412.81 306.544L432.99 485.581L392.972 486.711L367.09 340.554L342.124 308.35L412.81 306.544Z" fill="#212123"/>
<path d="M370.672 157.018C369.172 163.933 363.905 170.237 356.87 172.671C347.484 175.921 338.514 171.033 336.829 161.767C335.153 152.491 341.411 142.346 350.798 139.097C351.27 138.93 351.732 138.791 352.205 138.671C361.063 136.357 369.237 141.198 370.829 150.011C371.255 152.334 371.172 154.713 370.672 157.027V157.018Z" fill="#212123"/>
<path d="M343.003 153.677C342.939 154.278 342.374 154.741 341.754 154.704C341.124 154.667 340.68 154.158 340.745 153.556C340.809 152.955 341.374 152.492 341.994 152.529C342.624 152.566 343.068 153.075 343.003 153.677Z" fill="#212123"/>
<path d="M350.048 155.685C349.983 156.287 349.419 156.75 348.798 156.713C348.178 156.676 347.725 156.167 347.789 155.565C347.854 154.963 348.419 154.5 349.039 154.537C349.669 154.574 350.113 155.084 350.048 155.685Z" fill="#212123"/>
<path d="M345.605 158.906C345.54 158.906 345.485 158.888 345.429 158.869C344.429 158.444 343.383 158.082 342.319 157.796C342.161 157.759 342.041 157.647 341.986 157.499C341.93 157.351 341.958 157.185 342.05 157.055C343.374 155.148 344.707 153.241 346.04 151.334C346.207 151.103 346.531 151.029 346.762 151.177C347.003 151.325 347.058 151.63 346.892 151.862C345.688 153.584 344.494 155.296 343.291 157.018C344.17 157.277 345.04 157.592 345.883 157.953C346.142 158.064 346.244 158.36 346.114 158.61C346.012 158.805 345.799 158.916 345.596 158.906H345.605Z" fill="#212123"/>
<path d="M343.809 160.082L350.279 158.879C350.279 158.879 349.391 163.165 347.891 163.479C346.391 163.794 343.809 160.082 343.809 160.082Z" fill="#212123"/>
<path d="M357.574 186.927L349.437 182.678L346.53 187.686L350.909 197.424L357.574 186.927Z" fill="#212123"/>
<path d="M297.848 263.87C298.931 259.232 300.69 206.913 318.13 196.304C324.536 192.407 346.53 187.677 346.53 187.677L373.246 183.604L403.691 180.456L405.237 293.011L328.581 307.349L316.297 246.273L321.926 274.256C302.384 278.561 293.831 281.06 297.848 263.87Z" fill="#212123"/>
<path d="M316.316 245.56L316.927 248.143L327.73 315.82L412.809 306.544L403.691 180.466L373.246 183.622L372.912 183.678L375.31 184.076C375.31 184.076 352.862 236.34 345.003 239.682C338.949 242.255 343.457 205.061 345.845 187.862C342.106 188.769 328.396 191.444 322.462 194.518C317.816 196.915 310.466 238.553 316.325 245.569L316.316 245.56Z" fill="#212123"/>
<path d="M327.73 316.236C327.526 316.236 327.35 316.088 327.322 315.885L316.519 248.208L315.936 245.755C312.706 241.7 313.483 228 315.307 216.475C315.344 216.244 315.557 216.096 315.779 216.133C316.001 216.17 316.158 216.383 316.121 216.605C313.854 230.953 314.057 242.218 316.631 245.301C316.668 245.347 316.705 245.412 316.714 245.468L317.325 248.05L328.128 315.755C328.165 315.986 328.007 316.199 327.785 316.236C327.767 316.236 327.739 316.236 327.72 316.236H327.73Z" fill="#212123"/>
<path d="M347.78 198.535C347.734 198.545 347.678 198.554 347.632 198.544C347.475 198.535 347.354 198.443 347.308 198.295C346.308 194.999 345.836 191.444 345.919 187.723C345.919 187.446 346.16 187.159 346.447 187.085C346.753 187.001 346.956 187.177 346.956 187.455C346.882 190.834 347.271 194.083 348.123 197.1C351.335 193.953 354.482 190.685 357.5 187.39C357.722 187.149 358.046 187.085 358.231 187.242C358.416 187.399 358.388 187.723 358.166 187.964C354.936 191.5 351.557 194.99 348.113 198.341C348.021 198.433 347.9 198.498 347.789 198.526L347.78 198.535Z" fill="#212123"/>
<path d="M345.392 149.789C344.836 149.761 344.466 149.65 344.022 149.483C343.587 149.316 343.133 149.15 342.652 148.798H342.633C342.429 148.641 342.383 148.363 342.531 148.159C342.578 148.095 342.652 148.039 342.716 148.011C343.3 147.761 343.911 147.761 344.503 147.909C344.799 147.983 345.095 148.113 345.355 148.298C345.614 148.483 345.854 148.733 345.984 149.067C346.086 149.344 345.956 149.65 345.679 149.752C345.605 149.779 345.53 149.789 345.466 149.789H345.392Z" fill="#212123"/>
<path d="M280.131 279.264C286.324 281.921 290.147 287.521 288.49 291.4C286.833 295.279 273.753 297.584 267.569 295.538C261.386 293.492 259.442 289.558 259.442 289.558L280.131 279.274V279.264Z" fill="#212123"/>
<path d="M212.148 271.757H331.728L331.256 274.145C330.729 276.811 328.146 278.968 325.48 278.968H215.555C212.889 278.968 211.158 276.811 211.685 274.145L212.158 271.757H212.148Z" fill="#212123"/>
<path d="M213.268 271.757H305.244L300.505 214.92C300.385 213.513 299.376 212.55 298.015 212.55H212.5C210.426 212.55 208.51 214.726 208.686 216.873L213.268 271.757Z" fill="#212123"/>
<path d="M255.851 235.544L252.361 242.163L248.871 248.772H255.925H262.988L259.424 242.163L255.851 235.544Z" fill="#212123"/>
<path d="M262.283 273.96C262.283 273.96 266.597 264.324 266.264 262.769C265.93 261.214 263.94 259.807 261.58 261.63C259.219 263.454 255.016 271.785 255.016 271.785C255.016 271.785 253.045 275.154 255.776 276.987C258.506 278.82 261.598 275.302 262.283 273.96Z" fill="#212123"/>
<path d="M270.041 275.71C270.041 275.71 274.928 264.324 274.595 262.769C274.262 261.213 272.272 259.806 269.911 261.63C267.551 263.454 263.348 271.785 263.348 271.785C263.348 271.785 261.034 275.876 264.135 277.57C267.245 279.264 270.041 275.71 270.041 275.71Z" fill="#212123"/>
<path d="M277.891 277.506C277.891 277.506 280.973 267.915 280.325 266.444C279.687 264.972 277.502 262.63 275.438 264.935C273.373 267.24 270.532 275.451 270.532 275.451C270.532 275.451 268.921 279.32 271.429 280.894C273.938 282.467 276.521 280.69 277.891 277.506Z" fill="#212123"/>
<path d="M254.406 272.96C254.406 272.96 259.469 261.926 259.173 260.084C258.886 258.242 256.924 256.261 254.48 257.899C252.036 259.538 247.519 268.286 247.519 268.286C247.519 268.286 244.742 272.22 246.047 275.182C247.352 278.144 251.166 277.376 254.406 272.951V272.96Z" fill="#212123"/>
<path d="M334.978 247.374C334.978 247.374 315.057 254.15 313.298 253.558C311.54 252.965 309.938 250.688 311.947 248.522C313.956 246.356 322.972 242.903 322.972 242.903C322.972 242.903 335.857 237.645 338.542 239.432C341.226 241.228 339.838 244.894 334.978 247.374Z" fill="#212123"/>
<path d="M282.27 285.448C282.27 285.448 282.464 279.56 278.132 274.664L271.235 275.126L269.097 275.21L258.396 272.747L246.344 270.831C246.344 270.831 243.706 272.729 247.566 282.412C251.435 292.085 266.829 293.825 272.633 292.9C278.437 291.974 282.26 285.448 282.26 285.448H282.27Z" fill="#212123"/>
<path d="M251.286 287.087L243.538 284.485L238.706 278.978H246.482L251.286 287.087Z" fill="#212123"/>
<path d="M333.608 246.411C333.608 246.411 329.943 248.55 326.564 251.114C323.185 253.678 325.879 257.992 328.896 257.936C328.896 257.936 325.305 263.99 332.109 264.351C332.109 264.351 330.155 269.692 336.052 268.989C341.939 268.285 343.319 264.472 343.319 264.472C343.319 264.472 344.291 268.878 351.974 267.693C359.657 266.517 361.295 250.29 353.946 243.912C346.596 237.534 335.821 239.08 335.821 239.08" fill="#212123"/>
<path d="M248.454 282.717C248.315 282.717 248.176 282.643 248.093 282.514L246.121 279.181C244.964 277.228 244.353 272.507 245.871 269.98C245.992 269.785 246.251 269.721 246.445 269.841C246.64 269.961 246.704 270.211 246.584 270.415C245.233 272.664 245.806 277.033 246.843 278.764L248.815 282.097C248.935 282.291 248.87 282.551 248.667 282.671C248.602 282.708 248.528 282.726 248.454 282.726V282.717Z" fill="#212123"/>
</g>
<path d="M95.7671 164.782L62.0351 212.27C62.0351 212.27 56.8605 257.693 67.367 254.009C77.8828 250.325 94.3508 233.412 94.3508 233.412L95.7671 164.791V164.782Z" fill="#3F358E"/>
<path d="M37.4307 175.261L67.7006 153.794L78.8736 234.783C79.9659 241.364 77.1611 247.974 71.681 251.769C61.0449 259.119 46.4098 252.565 44.8084 239.744L37.4399 175.261H37.4307Z" fill="#3F358E"/>
<path d="M206.599 40.0644L159.76 144.25C159.76 144.25 164.564 192.349 190.946 195.145L239.156 56.5602C239.156 56.5602 238.721 50.3395 224.984 43.2766C212.283 36.732 206.599 40.0644 206.599 40.0644Z" fill="#3F358E"/>
<path d="M67.293 144.158C67.293 144.158 67.3023 156.395 62.5905 159.793C62.5905 159.793 62.9423 167.596 54.3612 169.133C45.7801 170.669 39.0503 156.303 39.0503 156.303L37.8007 146.935L44.1231 138.409L67.3023 144.167L67.293 144.158Z" fill="#FFC6B4"/>
<path d="M54.4726 179.63L41.5315 177.048C41.4853 177.038 41.4482 176.992 41.4575 176.936L49.2888 123.728L62.4058 126.348L54.5745 179.556C54.5652 179.602 54.5189 179.639 54.4634 179.63H54.4726Z" fill="#1E1D3F"/>
<path d="M36.9023 149.61C36.9023 149.61 47.0108 152.387 48.4549 151.48C49.899 150.573 50.8061 147.759 48.5012 145.518C46.1962 143.278 37.1153 140.955 37.1153 140.955C37.1153 140.955 33.3847 139.687 32.2184 143.538C31.052 147.379 35.4398 149.221 36.9023 149.61Z" fill="#FFC6B4"/>
<path d="M38.8003 159.561C38.8003 159.561 48.9088 162.338 50.3529 161.431C51.797 160.524 52.7042 157.71 50.3992 155.47C48.0942 153.23 39.0133 150.906 39.0133 150.906C39.0133 150.906 34.5052 149.453 33.561 153.711C32.6168 157.969 38.8096 159.552 38.8096 159.552L38.8003 159.561Z" fill="#FFC6B4"/>
<path d="M40.0407 170.54C40.0407 170.54 50.0844 171.132 51.3711 169.892C52.6578 168.651 54.4444 165.291 51.7321 163.569C49.0199 161.848 40.374 161.098 40.374 161.098C40.374 161.098 36.2454 160.422 35.2734 163.921C34.3015 167.42 36.6249 169.929 40.0407 170.549V170.54Z" fill="#FFC6B4"/>
<path d="M37.1249 140.039C37.1249 140.039 47.7333 143.093 49.4643 142.149C51.1954 141.205 52.6764 138.233 50.5196 135.836C48.3628 133.448 38.8189 130.874 38.8189 130.874C38.8189 130.874 36.7269 128.949 34.135 131.467C31.543 133.985 32.0799 137.585 37.1249 140.029V140.039Z" fill="#FFC6B4"/>
<path d="M38.819 130.884C38.819 130.884 48.3628 133.457 50.5197 135.845C52.6765 138.233 51.1954 141.214 49.4644 142.158C47.7334 143.103 37.125 140.048 37.125 140.048" fill="#FFC6B4"/>
<path d="M48.3252 142.788C45.1686 142.788 38.5129 140.927 36.9948 140.492C36.7448 140.418 36.606 140.168 36.68 139.918C36.7541 139.678 37.004 139.529 37.254 139.604C41.2807 140.761 48.103 142.381 49.2416 141.76C50.0007 141.353 50.8616 140.363 51.0837 139.085C51.2133 138.354 51.1578 137.243 50.1858 136.16C48.1493 133.892 38.7999 131.365 38.7073 131.337C38.4574 131.272 38.3185 131.013 38.3833 130.772C38.4481 130.523 38.7073 130.384 38.948 130.448C39.346 130.55 48.6492 133.077 50.8708 135.549C52.0927 136.91 52.1575 138.308 52.0002 139.242C51.7595 140.631 50.8523 141.936 49.6952 142.575C49.4082 142.732 48.9361 142.797 48.3344 142.797L48.3252 142.788Z" fill="#212123"/>
<path d="M47.3633 152.1C44.4196 152.1 38.199 150.443 36.7734 150.045C36.5235 149.981 36.3847 149.721 36.4495 149.481C36.5142 149.231 36.7734 149.092 37.0141 149.157C41.8832 150.499 47.4003 151.582 48.1964 151.082C48.8444 150.675 49.3165 149.832 49.4091 148.925C49.4924 148.148 49.335 146.991 48.1594 145.843C45.9655 143.723 37.0697 141.418 36.9771 141.399C36.7272 141.335 36.5791 141.085 36.6438 140.835C36.7086 140.585 36.9586 140.437 37.2085 140.502C37.588 140.594 46.4283 142.89 48.7981 145.176C49.9274 146.269 50.4643 147.629 50.3255 149.018C50.2052 150.212 49.5664 151.304 48.6778 151.86C48.4186 152.026 47.9465 152.091 47.3448 152.091L47.3633 152.1Z" fill="#212123"/>
<path d="M49.2695 162.052C46.3259 162.052 40.1052 160.395 38.6797 159.997C38.4298 159.932 38.2909 159.673 38.3557 159.432C38.4205 159.182 38.6797 159.043 38.9204 159.108C43.7895 160.45 49.3066 161.533 50.1027 161.033C50.7506 160.626 51.2227 159.784 51.3153 158.876C51.3986 158.099 51.2413 156.933 50.0656 155.794C47.8718 153.674 38.9759 151.369 38.8833 151.351C38.6334 151.286 38.4853 151.036 38.5501 150.786C38.6149 150.536 38.8648 150.388 39.1148 150.453C39.4943 150.545 48.3346 152.841 50.7044 155.127C51.8337 156.22 52.3798 157.58 52.2317 158.969C52.1114 160.163 51.4727 161.255 50.584 161.811C50.3248 161.978 49.862 162.042 49.2603 162.042L49.2695 162.052Z" fill="#212123"/>
<path d="M44.9566 171.151C42.7812 171.151 40.754 171.049 40.0134 171.003C39.7542 170.984 39.5599 170.771 39.5784 170.512C39.5969 170.253 39.8098 170.068 40.069 170.077C44.1513 170.318 50.2608 170.318 51.0569 169.549C51.7604 168.874 52.8342 167.244 52.6861 165.773C52.612 165.014 52.2047 164.403 51.4919 163.949C48.9 162.301 40.4207 161.561 40.3374 161.551C40.0782 161.533 39.8931 161.302 39.9116 161.052C39.9301 160.792 40.143 160.607 40.4115 160.626C40.7725 160.654 49.2055 161.403 51.9826 163.162C52.936 163.764 53.4914 164.634 53.6025 165.671C53.7877 167.485 52.5657 169.374 51.6956 170.207C50.918 170.956 47.8077 171.132 44.9566 171.132V171.151Z" fill="#212123"/>
<path d="M59.3317 139.196C59.3317 139.196 55.0365 149.36 55.7586 151.193C56.4899 153.026 59.2669 154.85 61.8959 152.998C64.5248 151.147 68.2183 141.973 68.2183 141.973C68.2183 141.973 70.3751 140.122 68.1905 137.252C66.0059 134.383 62.3587 134.475 59.3317 139.196Z" fill="#FFC6B4"/>
<path d="M68.2279 141.973C68.2279 141.973 64.5345 151.147 61.9055 152.998C59.2766 154.85 56.4902 153.026 55.7682 151.193C55.0369 149.36 59.3414 139.196 59.3414 139.196" fill="#FFC6B4"/>
<path d="M59.6009 154.239C59.1381 154.239 58.7123 154.155 58.3698 154.053C57.0183 153.646 55.8241 152.591 55.3428 151.36C54.5837 149.453 58.1846 140.742 58.9159 139.011C59.0177 138.78 59.2862 138.669 59.5269 138.761C59.7583 138.863 59.8694 139.131 59.7768 139.372C58.1476 143.232 55.7316 149.814 56.2129 151.017C56.5277 151.823 57.407 152.795 58.6475 153.165C59.3602 153.378 60.4618 153.452 61.6559 152.619C64.146 150.86 67.784 141.89 67.8118 141.797C67.9043 141.557 68.182 141.446 68.4135 141.538C68.6541 141.631 68.7652 141.899 68.6727 142.14C68.5245 142.519 64.8959 151.462 62.1836 153.368C61.2579 154.016 60.3692 154.229 59.6102 154.229L59.6009 154.239Z" fill="#212123"/>
<path d="M133.628 95.4204C133.628 95.4204 126.722 97.7439 118.493 93.3006C109.218 88.2926 106.829 108.732 120.002 112.296C128.277 114.536 133.943 99.9933 133.943 99.9933L133.628 95.4204Z" fill="#212123"/>
<path d="M101.932 286.89L103.459 487.088L149.095 487.902L151.373 310.865L117.631 287.251L101.932 286.89Z" fill="#3F358E"/>
<path d="M196.26 285.242L218.708 484.385L174.201 485.643L145.412 323.074L117.632 287.25L196.26 285.242Z" fill="#3F358E"/>
<path d="M174.2 486.106C173.978 486.106 173.783 485.949 173.746 485.727L144.976 323.269L117.27 287.537C117.113 287.334 117.15 287.047 117.354 286.889C117.557 286.732 117.844 286.769 118.002 286.973L145.781 322.797C145.828 322.852 145.856 322.926 145.874 323L174.663 485.569C174.709 485.819 174.543 486.06 174.283 486.106C174.256 486.106 174.228 486.106 174.2 486.106Z" fill="#212123"/>
<path d="M149.457 149.175L126.102 154.026L125.973 128.153L147.004 123.784L149.457 149.175Z" fill="#FFC6B4"/>
<path d="M125.991 135.688L139.682 133.966L126.26 143.566L125.991 135.688Z" fill="#212123"/>
<path d="M151.66 116.406C150.466 124.182 145.032 131.541 137.386 134.716C127.185 138.955 116.891 134.142 114.401 123.959C111.911 113.777 118.168 102.085 128.379 97.8457C128.888 97.6328 129.397 97.4477 129.915 97.2811C139.598 94.106 149.003 98.9381 151.363 108.611C151.993 111.166 152.067 113.814 151.66 116.415V116.406Z" fill="#FFC6B4"/>
<path d="M150.763 121.562C131.12 116.628 128.093 100.373 127.343 96.994C138.534 92.9303 150.79 95.4759 152.855 107.288C153.891 113.194 152.299 118.637 150.753 121.58L150.763 121.562Z" fill="#212123"/>
<path d="M155.65 121.988C155.446 126.07 151.855 129.403 147.624 129.43C143.394 129.458 140.126 126.181 140.321 122.099C140.524 118.017 144.116 114.684 148.346 114.656C152.577 114.629 155.844 117.906 155.65 121.988Z" fill="#FFC6B4"/>
<path d="M144.338 125.339C144.19 125.339 144.051 125.283 143.94 125.181C143.023 124.283 142.551 123.071 142.607 121.775C142.662 120.479 143.227 119.257 144.217 118.322C145.208 117.396 146.485 116.869 147.828 116.85C147.846 116.85 147.855 116.85 147.865 116.85C149.188 116.841 150.42 117.322 151.318 118.22C151.53 118.433 151.521 118.785 151.29 119.007C151.058 119.229 150.688 119.229 150.475 119.016C149.772 118.322 148.809 117.97 147.781 117.961C146.745 117.979 145.754 118.377 144.995 119.1C144.236 119.812 143.792 120.756 143.755 121.756C143.718 122.756 144.079 123.682 144.782 124.376C144.995 124.589 144.986 124.941 144.754 125.163C144.634 125.274 144.486 125.329 144.338 125.329V125.339Z" fill="#212123"/>
<path d="M120.715 114.554C120.678 115.23 120.094 115.776 119.391 115.776C118.697 115.776 118.16 115.239 118.188 114.573C118.225 113.897 118.808 113.351 119.511 113.351C120.206 113.351 120.742 113.888 120.715 114.554Z" fill="#212123"/>
<path d="M128.676 116.304C128.639 116.98 128.055 117.526 127.352 117.526C126.658 117.526 126.121 116.989 126.148 116.322C126.186 115.647 126.769 115.101 127.472 115.101C128.166 115.101 128.703 115.637 128.676 116.304Z" fill="#212123"/>
<path d="M123.964 120.182C123.899 120.182 123.825 120.173 123.76 120.145C122.622 119.738 121.437 119.405 120.233 119.164C120.057 119.127 119.909 119.016 119.845 118.859C119.78 118.701 119.789 118.516 119.882 118.359C121.224 116.156 122.575 113.943 123.918 111.74C124.084 111.472 124.445 111.37 124.714 111.509C124.982 111.657 125.075 111.99 124.908 112.259C123.695 114.249 122.473 116.239 121.261 118.229C122.261 118.461 123.242 118.748 124.204 119.099C124.501 119.201 124.63 119.525 124.51 119.812C124.417 120.034 124.186 120.173 123.955 120.182H123.964Z" fill="#212123"/>
<path d="M122.038 121.608L129.138 119.831C129.138 119.831 128.444 124.644 126.796 125.098C125.148 125.552 122.038 121.608 122.038 121.608Z" fill="#E94A2D"/>
<path d="M134.831 151.841L125.769 148.157L122.538 154.1L127.407 164.366L134.831 151.841Z" fill="white"/>
<path d="M134.831 151.841L148.448 140.492L152.243 146.148L143.088 158.839L134.831 151.841Z" fill="white"/>
<path d="M151.882 146.25L155.502 145.75C155.502 145.75 143.171 221.638 134.424 226.368C133.813 226.701 133.174 226.544 132.498 225.988C125.741 220.333 116.512 173.048 118.918 155.368C118.27 155.599 117.419 155.886 116.419 156.22C120.048 154.924 122.547 154.1 122.547 154.1L152.262 146.139L151.891 146.25H151.882Z" fill="white"/>
<path d="M130.758 167.726C128.278 177.14 124.723 208.289 124.492 228.608C124.26 248.927 124.492 265.534 124.492 265.534L135.831 278.808L144.866 258.628C144.866 258.628 138.645 229.469 137.812 202.282C136.979 175.094 137.164 166.217 137.164 166.217L130.758 167.726Z" fill="#FF767E"/>
<path d="M200.073 301.765L96.7576 310.485L92.0366 254.028L89.8242 227.618L89.6205 225.146L88.9355 222.36C82.4279 215.315 90.5925 168.059 95.7671 164.792C96.3873 164.403 97.063 164.014 97.7666 163.625C97.7943 163.607 97.8314 163.588 97.8776 163.57C103.423 160.598 111.319 157.951 116.114 156.34C116.215 156.303 116.317 156.275 116.419 156.229C117.419 155.886 118.261 155.609 118.918 155.377C116.512 173.058 125.741 220.342 132.498 225.998C133.165 226.553 133.813 226.711 134.424 226.377C143.171 221.656 155.502 145.759 155.502 145.759L151.882 146.259L152.252 146.167L180.042 140.085L186.114 138.752V138.891L200.083 301.784L200.073 301.765Z" fill="#3F358E"/>
<path d="M116.104 156.331C110.93 158.173 103.607 160.922 97.8682 163.56C103.413 160.589 111.309 157.941 116.104 156.331Z" fill="#38297A"/>
<path d="M129.055 159.052L130.86 166.291L137.266 164.782L139.765 156.025L135.016 153.007L129.055 159.052Z" fill="#FF767E"/>
<path d="M96.7576 310.948C96.5169 310.948 96.3132 310.763 96.2947 310.522L89.1577 225.183L88.519 222.573C84.9273 218.444 85.7882 203.115 87.8154 190.072C87.8525 189.822 88.0931 189.646 88.3431 189.683C88.593 189.72 88.7689 189.961 88.7319 190.211C86.214 206.456 86.4362 218.944 89.2873 222.036C89.3428 222.091 89.3798 222.165 89.3984 222.239L90.0741 225.026L97.2297 310.43C97.2482 310.689 97.063 310.911 96.8038 310.929C96.7946 310.929 96.7761 310.929 96.7668 310.929L96.7576 310.948Z" fill="#212123"/>
<path d="M123.927 166.004C123.871 166.023 123.816 166.032 123.76 166.041C123.584 166.05 123.445 165.967 123.399 165.81C122.288 162.274 121.761 158.386 121.853 154.229C121.853 153.915 122.122 153.572 122.446 153.452C122.779 153.313 123.02 153.489 123.01 153.794C122.927 157.562 123.362 161.116 124.306 164.375C127.879 160.459 131.378 156.423 134.739 152.369C134.979 152.073 135.35 151.961 135.553 152.119C135.757 152.276 135.729 152.637 135.479 152.933C131.888 157.275 128.12 161.598 124.297 165.763C124.195 165.884 124.066 165.967 123.936 166.013L123.927 166.004Z" fill="#212123"/>
<path d="M144.348 159.33C144.209 159.376 144.07 159.376 143.968 159.33C140.728 157.571 137.71 155.451 135.017 153.007C134.822 152.831 134.878 152.461 135.137 152.183C135.387 151.896 135.757 151.804 135.942 151.98C138.469 154.266 141.284 156.275 144.301 157.95C146.551 154.137 148.967 150.332 151.466 146.629C151.679 146.315 152.04 146.148 152.281 146.259C152.521 146.37 152.54 146.713 152.327 147.027C149.698 150.906 147.18 154.905 144.829 158.904C144.727 159.071 144.579 159.219 144.412 159.293C144.385 159.302 144.366 159.311 144.338 159.32L144.348 159.33Z" fill="#212123"/>
<path d="M131.156 112.203C130.545 112.203 130.119 112.111 129.619 111.963C129.129 111.805 128.61 111.648 128.046 111.296H128.027C127.796 111.139 127.722 110.824 127.87 110.592C127.916 110.509 127.99 110.454 128.064 110.407C128.693 110.083 129.369 110.056 130.045 110.176C130.378 110.241 130.711 110.361 131.017 110.546C131.322 110.741 131.6 111 131.767 111.361C131.906 111.657 131.767 112.009 131.48 112.148C131.406 112.185 131.322 112.203 131.239 112.203H131.156Z" fill="#212123"/>
<path d="M123.112 110.083C122.501 110.083 122.075 109.991 121.575 109.843C121.085 109.685 120.566 109.528 120.002 109.176H119.983C119.752 109.019 119.678 108.704 119.826 108.473C119.872 108.389 119.946 108.334 120.02 108.287C120.65 107.963 121.325 107.936 122.001 108.056C122.334 108.121 122.668 108.241 122.973 108.426C123.278 108.621 123.556 108.88 123.723 109.241C123.862 109.537 123.723 109.889 123.436 110.028C123.362 110.065 123.278 110.083 123.195 110.083H123.112Z" fill="#212123"/>
<g style="mix-blend-mode:color-dodge">
<path d="M132.489 225.988C120.168 221.962 104.478 188.878 104.478 188.878L116.308 180.741L104.478 165.689L118.909 155.368C116.502 173.048 125.731 220.332 132.489 225.988Z" fill="#38297A"/>
</g>
<g style="mix-blend-mode:color-dodge">
<path d="M154.177 172.178L168.285 174.937C168.285 174.937 149.364 222.212 134.414 226.368C143.162 221.647 155.492 145.75 155.492 145.75L168.285 149.666L154.177 172.178Z" fill="#38297A"/>
</g>
<path d="M142.783 307.06C142.551 307.06 142.347 306.884 142.32 306.643L133.942 226.414C133.914 226.164 134.1 225.933 134.359 225.905C134.599 225.877 134.84 226.062 134.868 226.322L143.245 306.551C143.273 306.801 143.088 307.032 142.829 307.06C142.81 307.06 142.792 307.06 142.783 307.06Z" fill="#212123"/>
<path d="M102.108 310.495C101.867 310.495 101.663 310.309 101.645 310.059C101.626 309.8 101.821 309.587 102.08 309.569L142.542 306.866L198.101 301.46C198.36 301.451 198.583 301.617 198.61 301.876C198.638 302.136 198.453 302.358 198.194 302.386L142.625 307.792L102.154 310.495C102.154 310.495 102.135 310.495 102.126 310.495H102.108Z" fill="#212123"/>
<path d="M238.174 56.8192C237.823 57.1802 236.425 57.5875 234.101 57.569C230.88 57.5412 225.881 56.6803 219.438 53.6719C214.31 51.2836 210.987 48.525 209.071 46.1275C206.849 43.3505 206.534 41.0825 207.525 40.4901C208.358 39.981 216.772 38.5647 226.4 44.0262C229.084 45.5536 231.25 47.155 232.972 48.6917H232.981C234.175 49.784 235.157 50.83 235.934 51.7927C238.008 54.3661 238.628 56.3563 238.184 56.8192H238.174Z" fill="#1A191E"/>
<path d="M236.481 50.0803L235.934 51.7929L234.111 57.5691C230.889 57.5414 225.891 56.6805 219.448 53.672C214.32 51.2837 210.996 48.5252 209.08 46.1277L211.524 40.2125L232.982 48.7011H232.991L236.49 50.0896L236.481 50.0803Z" fill="#FFC6B4"/>
<path d="M249.987 31.409L221.911 15.2095L212.293 32.9456C209.433 37.898 211.534 42.4432 216.44 46.6273C221.346 50.8114 226.474 52.0796 226.474 52.0796C232.158 53.9402 238.36 51.5612 241.35 46.3866L249.987 31.4182V31.409Z" fill="#FFC6B4"/>
<path d="M227.381 0.0377819C225.4 -0.249181 223.567 1.13009 223.289 3.1018L220.66 21.3748L227.816 22.4024L230.445 4.12931C230.732 2.14835 229.352 0.315488 227.381 0.0377819Z" fill="#FFC6B4"/>
<path d="M210.784 12.2938C208.84 12.7474 207.627 14.6914 208.081 16.6353L212.274 34.6214L219.318 32.9829L215.125 14.9968C214.671 13.0529 212.728 11.8403 210.784 12.2938Z" fill="#FFC6B4"/>
<path d="M240.748 1.84297C238.879 1.14871 236.796 2.10217 236.101 3.97205L229.668 21.2824L236.444 23.8003L242.878 6.48992C243.572 4.62003 242.618 2.53724 240.748 1.84297Z" fill="#FFC6B4"/>
<path d="M250.57 8.1746C248.839 7.17486 246.626 7.7673 245.627 9.49833L236.397 25.4942L242.664 29.1044L251.893 13.1085C252.893 11.3775 252.301 9.16509 250.57 8.16534V8.1746Z" fill="#FFC6B4"/>
<path d="M257.901 20.1806C256.513 18.7458 254.226 18.6995 252.791 20.0881L239.489 32.8903L244.506 38.1019L257.808 25.2904C259.243 23.9019 259.29 21.6154 257.901 20.1806Z" fill="#FFC6B4"/>
<path d="M226.474 52.0797C232.157 53.9403 238.359 51.5613 241.349 46.3867L226.474 52.0797Z" fill="#FFC6B4"/>
<path d="M230.362 53.1626C229.02 53.1626 227.659 52.959 226.326 52.5239C226.086 52.4406 225.947 52.1814 226.03 51.9407C226.113 51.7001 226.373 51.5612 226.613 51.6445C232.047 53.4218 238.083 51.1169 240.943 46.1552C241.073 45.933 241.35 45.859 241.572 45.9886C241.795 46.1182 241.869 46.3959 241.739 46.618C239.36 50.7466 234.945 53.1626 230.353 53.1626H230.362Z" fill="#212123"/>
<path d="M225.817 18.2832C225.817 18.2832 238.259 21.8841 245.053 30.206L225.817 18.2832Z" fill="#FFC6B4"/>
<path d="M245.052 30.6686C244.923 30.6686 244.784 30.6131 244.691 30.502C238.073 22.393 225.807 18.7643 225.687 18.7273C225.437 18.6532 225.298 18.4033 225.372 18.1533C225.446 17.9034 225.706 17.7646 225.946 17.8386C226.076 17.8756 238.61 21.5784 245.413 29.9096C245.571 30.104 245.543 30.4002 245.349 30.5575C245.265 30.6316 245.154 30.6594 245.052 30.6594V30.6686Z" fill="#212123"/>
<path d="M215.125 14.9969L217.282 23.7447C217.282 23.7447 227.094 29.521 225.113 42.3787" fill="#FFC6B4"/>
<path d="M225.122 42.8416C225.122 42.8416 225.076 42.8416 225.048 42.8416C224.798 42.8045 224.623 42.5639 224.66 42.3139C226.567 29.9097 217.143 24.2075 217.05 24.152C216.939 24.0872 216.865 23.9853 216.838 23.865L214.681 15.1173C214.616 14.8673 214.773 14.6174 215.023 14.5618C215.273 14.497 215.523 14.6544 215.588 14.9044L217.708 23.4762C219.022 24.3463 227.446 30.4096 225.595 42.4713C225.558 42.7027 225.363 42.8601 225.141 42.8601L225.122 42.8416Z" fill="#212123"/>
<path d="M235.435 39.222C235.435 39.222 230.306 40.8883 228.205 45.0631L235.435 39.222Z" fill="#FFC6B4"/>
<path d="M228.205 45.5261C228.131 45.5261 228.066 45.5076 228.001 45.4799C227.77 45.3688 227.677 45.0818 227.798 44.8596C229.964 40.5645 235.083 38.8612 235.296 38.7871C235.546 38.7131 235.796 38.8427 235.879 39.0834C235.953 39.324 235.823 39.5832 235.583 39.6665C235.536 39.6851 230.612 41.3328 228.622 45.2762C228.538 45.4336 228.381 45.5261 228.205 45.5261Z" fill="#212123"/>
<path d="M87.3989 121.062C85.1495 129.43 81.7522 135.799 79.8083 135.271C77.8644 134.753 78.1143 127.542 80.3637 119.174C82.6131 110.805 86.0104 104.437 87.9543 104.964C89.8983 105.483 89.6484 112.694 87.3989 121.062Z" fill="#FCBF4A"/>
<path d="M68.265 104.594L87.9543 104.955L79.8083 135.271L62.5165 125.996L68.265 104.594Z" fill="#FCBF4A"/>
<path d="M18.9634 70.0845L68.2654 104.594L62.5169 125.996L2.625 130.837L18.9634 70.0845Z" fill="#FCBF4A"/>
<path d="M17.8429 102.354C13.3348 119.127 6.52173 131.883 2.62459 130.837C-1.27255 129.791 -0.77268 115.341 3.74467 98.5585C8.25276 81.7851 15.0658 69.0291 18.9629 70.0751C22.8601 71.1212 22.3602 85.5711 17.8429 102.354Z" fill="#1E1D3F"/>
<path d="M77.8831 228.071C77.6517 228.071 77.4573 227.905 77.4295 227.673L67.4043 154.952C67.3673 154.702 67.5432 154.461 67.8024 154.433C68.0616 154.396 68.293 154.572 68.3208 154.831L78.3459 227.553C78.383 227.803 78.2071 228.044 77.9479 228.071C77.9294 228.071 77.9016 228.071 77.8831 228.071Z" fill="#212123"/>
<path d="M321.625 95.0315C321.625 95.0315 315.654 89.9958 306.851 95.7906C298.048 101.585 298.242 113.582 306.592 115.554C314.942 117.526 324.624 98.9842 324.624 98.9842L321.625 95.0408V95.0315Z" fill="#212123"/>
<path d="M289.523 268.413C289.523 268.413 245.043 284.733 222.864 270.746C200.684 256.749 244.034 242.262 244.034 242.262L290.994 246.048L289.513 268.413H289.523Z" fill="white"/>
<path d="M293.919 284.649L295.446 484.848L341.083 485.662L343.36 308.625L309.619 285.001L293.919 284.649Z" fill="#2C2C84"/>
<path d="M388.247 282.992L410.695 482.135L366.188 483.394L337.399 320.825L309.619 285.001L388.247 282.992Z" fill="#423EAD"/>
<path d="M341.361 145.62L318.496 152.443L316.173 126.671L336.76 120.534L341.361 145.62Z" fill="#FFC6B4"/>
<path d="M316.913 134.818L330.326 131.3L317.765 142.001L316.913 134.818Z" fill="#212123"/>
<path d="M341.38 116.683C339.713 124.367 333.844 131.383 326.022 134.086C315.581 137.697 305.602 132.263 303.732 121.951C301.871 111.638 308.823 100.345 319.265 96.7349C319.793 96.5498 320.311 96.4017 320.829 96.2628C330.688 93.6894 339.778 99.0769 341.546 108.871C342.018 111.453 341.926 114.101 341.37 116.674L341.38 116.683Z" fill="#FFC6B4"/>
<path d="M340.166 121.784C320.857 115.665 318.829 99.262 318.283 95.837C329.706 92.4582 341.777 95.7444 343.129 107.649C343.804 113.61 341.888 118.942 340.166 121.784Z" fill="#212123"/>
<path d="M345.017 122.497C344.573 126.561 340.787 129.671 336.557 129.44C332.336 129.217 329.271 125.737 329.716 121.673C330.16 117.609 333.946 114.499 338.177 114.73C342.398 114.953 345.462 118.433 345.017 122.497Z" fill="#FFC6B4"/>
<path d="M333.521 125.153C333.373 125.153 333.234 125.089 333.132 124.968C332.271 124.015 331.873 122.774 332.003 121.488C332.132 120.201 332.78 119.007 333.817 118.137C334.863 117.267 336.168 116.822 337.51 116.887C337.529 116.887 337.538 116.887 337.557 116.887C338.88 116.961 340.075 117.517 340.926 118.461C341.13 118.692 341.093 119.035 340.843 119.248C340.593 119.451 340.232 119.433 340.028 119.211C339.371 118.479 338.436 118.063 337.399 117.998C336.363 117.952 335.353 118.294 334.548 118.961C333.743 119.627 333.252 120.544 333.15 121.543C333.049 122.534 333.354 123.487 334.02 124.228C334.224 124.459 334.187 124.802 333.937 125.015C333.817 125.116 333.659 125.163 333.511 125.163L333.521 125.153Z" fill="#212123"/>
<path d="M310.6 112.962C310.526 113.629 309.906 114.138 309.212 114.101C308.518 114.064 308.009 113.49 308.083 112.823C308.157 112.157 308.777 111.648 309.471 111.685C310.165 111.722 310.675 112.296 310.6 112.962Z" fill="#212123"/>
<path d="M318.441 115.193C318.367 115.86 317.747 116.369 317.052 116.332C316.358 116.295 315.849 115.721 315.923 115.054C315.997 114.388 316.617 113.879 317.312 113.916C318.006 113.953 318.515 114.527 318.441 115.193Z" fill="#212123"/>
<path d="M313.498 118.775C313.433 118.775 313.368 118.757 313.303 118.729C312.193 118.248 311.026 117.85 309.851 117.535C309.675 117.489 309.536 117.368 309.48 117.202C309.425 117.035 309.453 116.859 309.554 116.702C311.026 114.582 312.507 112.462 313.988 110.342C314.174 110.083 314.535 110 314.794 110.167C315.053 110.324 315.127 110.666 314.942 110.935C313.609 112.851 312.276 114.758 310.943 116.674C311.924 116.97 312.896 117.313 313.831 117.72C314.118 117.841 314.238 118.174 314.09 118.451C313.979 118.674 313.748 118.794 313.507 118.785L313.498 118.775Z" fill="#212123"/>
<path d="M311.498 120.081L318.691 118.739C318.691 118.739 317.71 123.506 316.034 123.858C314.359 124.209 311.498 120.081 311.498 120.081Z" fill="#E94A2D"/>
<path d="M326.818 149.943L317.765 145.213L314.525 150.795L319.394 161.616L326.818 149.943Z" fill="white"/>
<path d="M326.818 149.943L340.435 140.177L344.24 146.259L335.075 157.904L326.818 149.943Z" fill="white"/>
<path d="M260.372 235.533C261.576 230.376 263.529 172.179 282.931 160.385C290.059 156.053 314.516 150.795 314.516 150.795L344.23 146.269L378.101 142.77L379.823 267.969L294.558 283.918L280.895 215.982L287.152 247.104C265.417 251.889 255.901 254.666 260.372 235.551V235.533Z" fill="white"/>
<path d="M280.923 215.167L281.599 218.037L293.614 293.314L388.247 283.002L378.102 142.77L344.231 146.278L343.861 146.333L346.526 146.778C346.526 146.778 321.561 204.92 312.813 208.632C306.074 211.492 311.091 170.124 313.748 150.99C309.592 151.999 294.336 154.979 287.736 158.395C282.562 161.061 274.397 207.373 280.914 215.177L280.923 215.167Z" fill="white"/>
<path d="M321.042 156.488L322.847 163.94L329.253 163.172L331.761 154.711L327.003 151.138L321.042 156.488Z" fill="#FF767E"/>
<path d="M293.614 293.767C293.392 293.767 293.197 293.61 293.16 293.378L281.145 218.102L280.497 215.371C276.905 210.863 277.775 195.626 279.793 182.805C279.83 182.555 280.071 182.379 280.321 182.416C280.571 182.453 280.747 182.694 280.71 182.944C278.192 198.903 278.414 211.437 281.284 214.862C281.33 214.917 281.358 214.982 281.376 215.056L282.052 217.926L294.077 293.23C294.114 293.48 293.947 293.721 293.697 293.758C293.669 293.758 293.651 293.758 293.623 293.758L293.614 293.767Z" fill="#212123"/>
<path d="M315.914 162.857C315.858 162.866 315.803 162.875 315.747 162.875C315.571 162.866 315.433 162.764 315.386 162.598C314.275 158.941 313.748 154.979 313.84 150.841C313.84 150.527 314.109 150.212 314.433 150.129C314.766 150.036 315.007 150.23 314.997 150.536C314.914 154.294 315.349 157.904 316.293 161.265C319.867 157.765 323.366 154.137 326.726 150.462C326.967 150.193 327.337 150.119 327.54 150.304C327.744 150.48 327.716 150.841 327.466 151.11C323.875 155.044 320.107 158.923 316.284 162.653C316.182 162.755 316.053 162.829 315.923 162.857H315.914Z" fill="#212123"/>
<path d="M336.334 158.543C336.195 158.58 336.056 158.562 335.954 158.488C332.714 156.359 329.697 153.887 327.003 151.138C326.809 150.943 326.864 150.582 327.123 150.323C327.373 150.064 327.744 150.018 327.929 150.212C330.456 152.785 333.27 155.118 336.288 157.155C338.537 153.6 340.953 150.073 343.452 146.667C343.665 146.38 344.026 146.25 344.267 146.398C344.508 146.537 344.526 146.88 344.313 147.176C341.684 150.758 339.167 154.461 336.815 158.191C336.713 158.349 336.565 158.469 336.399 158.534C336.371 158.534 336.352 158.552 336.325 158.552L336.334 158.543Z" fill="#212123"/>
<path d="M321.172 111.24C320.561 111.213 320.144 111.083 319.653 110.907C319.172 110.722 318.663 110.537 318.126 110.148H318.108C317.885 109.972 317.83 109.658 317.987 109.435C318.043 109.361 318.117 109.297 318.2 109.269C318.848 108.991 319.524 108.991 320.19 109.158C320.524 109.241 320.848 109.389 321.135 109.593C321.421 109.806 321.69 110.074 321.829 110.444C321.949 110.75 321.792 111.092 321.496 111.213C321.412 111.24 321.338 111.259 321.255 111.25H321.172V111.24Z" fill="#212123"/>
<path d="M313.267 108.639C312.656 108.611 312.239 108.482 311.748 108.306C311.267 108.121 310.758 107.936 310.221 107.547H310.202C309.98 107.371 309.925 107.056 310.082 106.834C310.138 106.76 310.212 106.695 310.295 106.668C310.943 106.39 311.619 106.39 312.285 106.556C312.619 106.64 312.943 106.788 313.229 106.992C313.516 107.204 313.785 107.473 313.924 107.843C314.044 108.149 313.887 108.491 313.591 108.611C313.507 108.639 313.433 108.658 313.35 108.649H313.267V108.639Z" fill="#212123"/>
<path d="M322.755 165.365C320.274 174.493 316.719 205.235 316.488 225.526C316.256 245.817 316.488 262.451 316.488 262.451L327.828 277.04L336.862 257.906C336.862 257.906 330.642 228.034 329.808 200.745C328.975 173.456 329.16 164.606 329.16 164.606L322.755 165.375V165.365Z" fill="#FF767E"/>
<path d="M240.674 252.648C247.561 255.611 251.81 261.831 249.968 266.145C248.125 270.459 233.574 273.023 226.696 270.746C219.818 268.468 217.661 264.09 217.661 264.09L240.674 252.648Z" fill="#212123"/>
<path d="M165.055 244.308H298.057L297.53 246.965C296.946 249.927 294.068 252.334 291.105 252.334H168.832C165.869 252.334 163.944 249.927 164.527 246.965L165.055 244.308Z" fill="#514D4F"/>
<path d="M166.295 244.308H268.601L263.325 181.093C263.195 179.528 262.066 178.455 260.557 178.455H165.434C163.129 178.455 160.99 180.871 161.194 183.259L166.285 244.308H166.295Z" fill="#222221"/>
<path d="M213.671 204.022L209.783 211.381L205.896 218.74H213.755H221.604L217.633 211.381L213.671 204.022Z" fill="white"/>
<path d="M355.478 182.879C358.829 201.254 364.67 219.194 364.67 219.194L325.106 213.335L317.636 245.03C317.636 245.03 376.417 278.697 401.309 248.316C412.574 234.579 405.372 184.083 385.09 147.296C375.519 129.93 352.127 164.505 355.469 182.879H355.478Z" fill="white"/>
<path d="M370.908 261.452C364.577 261.452 357.597 260.48 350.025 258.517C332.363 253.935 317.561 245.52 317.413 245.437C317.191 245.308 317.117 245.03 317.237 244.808C317.367 244.585 317.644 244.511 317.866 244.632C318.45 244.965 376.592 277.753 400.956 248.029C406.242 241.577 407.593 226.063 404.575 206.531C401.447 186.286 394.199 164.773 384.692 147.527C384.571 147.305 384.645 147.018 384.877 146.898C385.099 146.778 385.386 146.852 385.506 147.083C405.307 183 413.462 234.246 401.678 248.621C394.698 257.138 384.238 261.461 370.908 261.461V261.452Z" fill="#212123"/>
<path d="M364.67 219.657C364.67 219.657 364.624 219.657 364.605 219.657L325.041 213.797C324.791 213.76 324.615 213.529 324.652 213.27C324.689 213.02 324.93 212.844 325.18 212.881L364.003 218.629C362.892 215.112 357.968 199.116 355.024 182.963C354.978 182.713 355.145 182.472 355.394 182.426C355.644 182.38 355.885 182.546 355.931 182.796C359.236 200.93 365.049 218.87 365.105 219.046C365.151 219.203 365.123 219.37 365.022 219.49C364.929 219.592 364.799 219.657 364.67 219.657Z" fill="#212123"/>
<path d="M220.818 246.761C220.818 246.761 225.613 236.041 225.243 234.31C224.863 232.579 222.66 231.015 220.031 233.042C217.402 235.07 212.737 244.345 212.737 244.345C212.737 244.345 210.552 248.094 213.579 250.13C216.615 252.167 220.059 248.251 220.818 246.761Z" fill="#FFC6B4"/>
<path d="M229.455 248.696C229.455 248.696 234.889 236.032 234.519 234.292C234.139 232.561 231.936 230.997 229.307 233.024C226.678 235.051 222.013 244.326 222.013 244.326C222.013 244.326 219.43 248.872 222.892 250.76C226.354 252.648 229.455 248.686 229.455 248.686V248.696Z" fill="#FFC6B4"/>
<path d="M238.184 250.695C238.184 250.695 241.609 240.031 240.896 238.393C240.183 236.754 237.749 234.144 235.453 236.708C233.157 239.272 230.001 248.409 230.001 248.409C230.001 248.409 228.214 252.713 231 254.463C233.787 256.212 236.656 254.24 238.193 250.695H238.184Z" fill="#FFC6B4"/>
<path d="M212.061 245.641C212.061 245.641 217.69 233.375 217.366 231.32C217.042 229.265 214.866 227.072 212.145 228.895C209.423 230.719 204.406 240.448 204.406 240.448C204.406 240.448 201.314 244.826 202.767 248.122C204.221 251.417 208.46 250.565 212.061 245.641Z" fill="#FFC6B4"/>
<path d="M301.677 217.176C301.677 217.176 279.516 224.711 277.563 224.054C275.61 223.387 273.823 220.86 276.054 218.454C278.285 216.047 288.319 212.205 288.319 212.205C288.319 212.205 302.658 206.355 305.639 208.345C308.62 210.335 307.083 214.418 301.677 217.185V217.176Z" fill="#FFC6B4"/>
<path d="M243.053 259.535C243.053 259.535 243.275 252.981 238.443 247.538L230.769 248.057L228.39 248.149L216.495 245.419L203.082 243.29C203.082 243.29 200.147 245.4 204.443 256.166C208.747 266.932 225.872 268.866 232.324 267.829C238.776 266.793 243.034 259.535 243.034 259.535H243.053Z" fill="#FFC6B4"/>
<path d="M208.59 261.35L199.972 258.462L194.603 252.333H203.249L208.59 261.35Z" fill="#FFC6B4"/>
<path d="M300.15 216.111C300.15 216.111 296.067 218.49 292.318 221.342C288.569 224.193 291.55 228.997 294.91 228.932C294.91 228.932 290.911 235.671 298.483 236.069C298.483 236.069 296.317 242.012 302.862 241.225C309.416 240.438 310.943 236.199 310.943 236.199C310.943 236.199 312.026 241.096 320.57 239.781C329.114 238.467 330.938 220.425 322.764 213.325C314.59 206.225 302.603 207.947 302.603 207.947" fill="#FFC6B4"/>
<path d="M205.442 256.499C205.285 256.499 205.128 256.416 205.044 256.267L202.85 252.565C201.564 250.399 200.879 245.141 202.573 242.327C202.702 242.104 202.989 242.04 203.211 242.169C203.434 242.299 203.498 242.586 203.369 242.808C201.869 245.307 202.508 250.167 203.656 252.102L205.85 255.805C205.979 256.027 205.905 256.304 205.692 256.434C205.618 256.48 205.535 256.499 205.461 256.499H205.442Z" fill="#212123"/>
</svg>
