<svg width="574" height="257" viewBox="0 0 574 257" fill="none" xmlns="http://www.w3.org/2000/svg">
<g clip-path="url(#clip0_406_1723)">
<path d="M304.799 82.9961L305.894 86.3753C305.97 86.6176 306.199 86.7838 306.455 86.7838H310.009C310.585 86.7838 310.82 87.5178 310.356 87.8571L307.481 89.9413C307.273 90.0937 307.183 90.3568 307.266 90.6061L308.36 93.9852C308.541 94.5322 307.91 94.9893 307.446 94.65L304.571 92.5657C304.363 92.4134 304.079 92.4134 303.871 92.5657L300.995 94.65C300.531 94.9893 299.908 94.5322 300.081 93.9852L301.176 90.6061C301.252 90.3637 301.169 90.0937 300.961 89.9413L298.086 87.8571C297.621 87.5178 297.857 86.7838 298.432 86.7838H301.986C302.243 86.7838 302.471 86.6176 302.547 86.3753L303.642 82.9961C303.822 82.4491 304.591 82.4491 304.772 82.9961H304.799Z" fill="#FEBB05"/>
<path d="M332.929 88.9373L333.636 91.1185C333.684 91.2777 333.837 91.3816 334.003 91.3816H336.296C336.67 91.3816 336.823 91.8594 336.525 92.074L334.668 93.4243C334.536 93.5212 334.481 93.6944 334.529 93.8536L335.236 96.0348C335.354 96.388 334.945 96.6788 334.647 96.4641L332.79 95.1139C332.659 95.0169 332.472 95.0169 332.34 95.1139L330.483 96.4641C330.185 96.6788 329.777 96.388 329.894 96.0348L330.601 93.8536C330.65 93.6944 330.601 93.5212 330.462 93.4243L328.606 92.074C328.308 91.8594 328.46 91.3816 328.834 91.3816H331.128C331.294 91.3816 331.439 91.2777 331.495 91.1185L332.202 88.9373C332.319 88.5841 332.818 88.5841 332.929 88.9373Z" fill="#FEBB05"/>
<path d="M341.86 102.655C341.86 103.562 341.126 104.296 340.218 104.296C339.31 104.296 338.576 103.562 338.576 102.655C338.576 101.747 339.31 101.013 340.218 101.013C341.126 101.013 341.86 101.747 341.86 102.655Z" fill="#165BB8"/>
<path d="M296.09 77.3735C296.09 78.1906 295.432 78.8484 294.614 78.8484C293.797 78.8484 293.139 78.1906 293.139 77.3735C293.139 76.5564 293.797 75.8986 294.614 75.8986C295.432 75.8986 296.09 76.5564 296.09 77.3735Z" fill="#F65922"/>
<path d="M296.451 115.811C296.451 117.265 295.273 118.435 293.825 118.435C292.377 118.435 291.199 117.258 291.199 115.811C291.199 114.364 292.377 113.187 293.825 113.187C295.273 113.187 296.451 114.364 296.451 115.811Z" fill="#F65922"/>
<path d="M51.2641 134.431H15.2012V222.613H51.2641V134.431Z" fill="#E6E3FB"/>
<path d="M15.2011 134.431H8.42505V222.613H15.2011V134.431Z" fill="#D1CBF1"/>
<path d="M45.7976 143.495H19.8364V162.309H45.7976V143.495Z" stroke="white" stroke-width="1.13" stroke-linecap="round" stroke-linejoin="round"/>
<path d="M19.8364 148.654H45.7976" stroke="white" stroke-width="1.13" stroke-linecap="round" stroke-linejoin="round"/>
<path d="M33.9565 143.495V162.309" stroke="white" stroke-width="1.13" stroke-linecap="round" stroke-linejoin="round"/>
<path d="M45.7976 174.523H19.8364V193.337H45.7976V174.523Z" stroke="white" stroke-width="1.13" stroke-linecap="round" stroke-linejoin="round"/>
<path d="M19.8364 179.682H45.7976" stroke="white" stroke-width="1.13" stroke-linecap="round" stroke-linejoin="round"/>
<path d="M33.9565 174.523V193.337" stroke="white" stroke-width="1.13" stroke-linecap="round" stroke-linejoin="round"/>
<path d="M57.1188 151.506H51.2642V222.613H57.1188V151.506Z" fill="#D1CBF1"/>
<path d="M92.3571 151.506H57.1187V222.613H92.3571V151.506Z" fill="#E6E3FB"/>
<path d="M88.0061 159.525H60.6938V168.513H88.0061V159.525Z" stroke="white" stroke-width="1.13" stroke-linecap="round" stroke-linejoin="round"/>
<path d="M60.9709 162.308H87.4517" stroke="white" stroke-width="1.13" stroke-linecap="round" stroke-linejoin="round"/>
<path d="M88.0061 180.665H60.6938V189.653H88.0061V180.665Z" stroke="white" stroke-width="1.13" stroke-linecap="round" stroke-linejoin="round"/>
<path d="M60.9709 183.449H87.4517" stroke="white" stroke-width="1.13" stroke-linecap="round" stroke-linejoin="round"/>
<path d="M88.0061 201.806H60.6938V210.794H88.0061V201.806Z" stroke="white" stroke-width="1.13" stroke-linecap="round" stroke-linejoin="round"/>
<path d="M60.9709 204.582H87.4517" stroke="white" stroke-width="1.13" stroke-linecap="round" stroke-linejoin="round"/>
<path d="M104.96 135.719H82.4702V222.613H104.96V135.719Z" fill="#E6E3FB"/>
<path d="M82.4771 135.719H77.8696V222.613H82.4771V135.719Z" fill="#D1CBF1"/>
<path d="M104.96 130.768H82.4702V135.719H104.96V130.768Z" fill="#D1CBF1"/>
<path d="M82.4771 130.768H77.8696V135.719H82.4771V130.768Z" fill="#B1AAD9"/>
<path d="M102.036 138.966H85.6987V146.452H102.036V138.966Z" stroke="white" stroke-width="1.13" stroke-linecap="round" stroke-linejoin="round"/>
<path d="M91.4219 138.966V146.452" stroke="white" stroke-width="1.13" stroke-linecap="round" stroke-linejoin="round"/>
<path d="M97.124 138.966V146.452" stroke="white" stroke-width="1.13" stroke-linecap="round" stroke-linejoin="round"/>
<path d="M102.036 158.465H85.6987V165.951H102.036V158.465Z" stroke="white" stroke-width="1.13" stroke-linecap="round" stroke-linejoin="round"/>
<path d="M91.4219 158.465V165.958" stroke="white" stroke-width="1.13" stroke-linecap="round" stroke-linejoin="round"/>
<path d="M97.124 158.465V165.958" stroke="white" stroke-width="1.13" stroke-linecap="round" stroke-linejoin="round"/>
<path d="M102.036 177.965H85.6987V185.45H102.036V177.965Z" stroke="white" stroke-width="1.13" stroke-linecap="round" stroke-linejoin="round"/>
<path d="M91.4219 177.965V185.457" stroke="white" stroke-width="1.13" stroke-linecap="round" stroke-linejoin="round"/>
<path d="M97.124 177.965V185.457" stroke="white" stroke-width="1.13" stroke-linecap="round" stroke-linejoin="round"/>
<path d="M141.848 170.562H123.404V222.613H141.848V170.562Z" fill="#D1CBF1"/>
<path d="M155.331 170.562H141.848V222.613H155.331V170.562Z" fill="#E6E3FB"/>
<path d="M130.998 176.753H128.053V217.032H130.998V176.753Z" fill="#B1AAD9"/>
<path d="M136.734 176.753H133.79V217.032H136.734V176.753Z" fill="#B1AAD9"/>
<path d="M150.065 176.76H147.12V181.939H150.065V176.76Z" stroke="white" stroke-width="1.13" stroke-linecap="round" stroke-linejoin="round"/>
<path d="M150.065 185.976H147.12V191.156H150.065V185.976Z" stroke="white" stroke-width="1.13" stroke-linecap="round" stroke-linejoin="round"/>
<path d="M150.065 195.2H147.12V200.379H150.065V195.2Z" stroke="white" stroke-width="1.13" stroke-linecap="round" stroke-linejoin="round"/>
<path d="M150.065 204.416H147.12V209.595H150.065V204.416Z" stroke="white" stroke-width="1.13" stroke-linecap="round" stroke-linejoin="round"/>
<path d="M150.065 213.639H147.12V218.819H150.065V213.639Z" stroke="white" stroke-width="1.13" stroke-linecap="round" stroke-linejoin="round"/>
<path d="M124.485 109.6H54.5759C55.3658 104.995 57.9293 100.646 61.2273 97.3366C62.7377 95.8132 65.0449 94.4491 66.9156 95.5016C68.1073 96.1733 68.7309 97.6759 70.0265 98.1121C70.9619 98.4307 72.015 98.0844 72.7979 97.482C73.5809 96.8865 74.1559 96.0625 74.7518 95.2801C77.149 92.1364 80.1283 89.4358 83.4886 87.3585C85.7127 85.9806 88.5465 84.8657 90.8814 86.0498C92.4749 86.86 93.4241 88.5841 93.8675 90.3152C94.3179 92.0463 94.3664 93.8606 94.7059 95.6124C95.0454 97.3712 95.7383 99.1647 97.1517 100.259C98.5651 101.353 100.838 101.477 102.029 100.148C103.429 98.583 105.32 97.8075 107.323 97.1704C109.325 96.5334 111.965 97.4059 112.457 99.4416C112.838 101.007 111.944 102.932 113.011 104.136C113.919 105.161 115.547 104.863 116.912 104.857C120.127 104.843 123.203 107.176 124.055 110.278L123.84 110.133" fill="url(#paint0_linear_406_1723)"/>
<path d="M203.518 71.0169H180.55C179.529 71.0169 178.7 71.8447 178.7 72.8657V85.8006C178.7 86.8216 179.529 87.6494 180.55 87.6494H203.518C204.54 87.6494 205.368 86.8216 205.368 85.8006V72.8657C205.368 71.8447 204.54 71.0169 203.518 71.0169Z" fill="#D1CBF1"/>
<path d="M217.77 81.0019H194.574C193.552 81.0019 192.724 81.8297 192.724 82.8507V95.7856C192.724 96.8066 193.552 97.6344 194.574 97.6344H217.77C218.792 97.6344 219.62 96.8066 219.62 95.7856V82.8507C219.62 81.8297 218.792 81.0019 217.77 81.0019Z" stroke="#D1CBF1" stroke-width="0.8" stroke-miterlimit="10"/>
<path d="M321.393 234.184C330.868 234.184 338.548 227.268 338.548 218.736C338.548 210.204 330.868 203.287 321.393 203.287C311.919 203.287 304.238 210.204 304.238 218.736C304.238 227.268 311.919 234.184 321.393 234.184Z" fill="#917CE3"/>
<path d="M312.94 248.241C312.94 248.241 312.324 223.597 322.841 212.718" stroke="#2B2A2A" stroke-width="1.13" stroke-linecap="round" stroke-linejoin="round"/>
<path d="M316.564 223.333C314.09 220.28 312.816 216.333 313.058 212.455" stroke="#2B2A2A" stroke-width="1.13" stroke-linecap="round" stroke-linejoin="round"/>
<path d="M333.553 248.954C333.553 248.954 339.781 214.553 349.274 201.432C358.766 188.31 370.835 188.573 375.172 196.183C381.976 208.107 353.826 252.042 353.826 252.042L333.553 248.961V248.954Z" fill="#4286F5"/>
<path d="M321.546 247.313C321.546 247.313 315.878 229.988 321.546 224.213C325.723 220.169 327.213 226.235 327.213 226.235C327.213 226.235 327.774 208.349 339.151 209.492C354.969 211.077 334.377 247.313 334.377 247.313H321.546Z" fill="#165BB8"/>
<path d="M337.024 215.73L328.107 247.313" stroke="#2B2A2A" stroke-width="1.13" stroke-linecap="round" stroke-linejoin="round"/>
<path d="M357.754 202.228C348.879 215.239 343.017 230.708 338.555 247.32" stroke="#2B2A2A" stroke-width="1.13" stroke-linecap="round" stroke-linejoin="round"/>
<path d="M345.747 225.265C345.747 225.265 355.045 215.855 365.07 215.724" stroke="#2B2A2A" stroke-width="1.13" stroke-linecap="round" stroke-linejoin="round"/>
<path d="M340.703 239.654L355.599 237.12" stroke="#2B2A2A" stroke-width="1.13" stroke-linecap="round" stroke-linejoin="round"/>
<path d="M329.687 241.247C329.513 240.838 324.56 230.479 324.56 230.479" stroke="#2B2A2A" stroke-width="1.13" stroke-linecap="round" stroke-linejoin="round"/>
<path d="M451.025 110.86L497.737 64.1758V247.458H451.025V110.86Z" fill="#B1AAD9"/>
<mask id="mask0_406_1723" style="mask-type:luminance" maskUnits="userSpaceOnUse" x="446" y="75" width="48" height="184">
<path d="M447 121.684L493.712 75V258.283H447V121.684Z" fill="white"/>
</mask>
<g mask="url(#mask0_406_1723)">
<path d="M483.659 60.1665V248.241" stroke="#E0E0E0" stroke-width="1.13" stroke-linecap="round" stroke-linejoin="round"/>
<path d="M467.516 60.1665V248.241" stroke="#E0E0E0" stroke-width="1.13" stroke-linecap="round" stroke-linejoin="round"/>
<path d="M442.116 104.808H519.882" stroke="#E0E0E0" stroke-width="1.13" stroke-linecap="round" stroke-linejoin="round"/>
<path d="M442.116 123.539H519.882" stroke="#E0E0E0" stroke-width="1.13" stroke-linecap="round" stroke-linejoin="round"/>
<path d="M442.116 142.276H519.882" stroke="#E0E0E0" stroke-width="1.13" stroke-linecap="round" stroke-linejoin="round"/>
<path d="M442.116 161.014H519.882" stroke="#E0E0E0" stroke-width="1.13" stroke-linecap="round" stroke-linejoin="round"/>
<path d="M442.116 179.744H519.882" stroke="#E0E0E0" stroke-width="1.13" stroke-linecap="round" stroke-linejoin="round"/>
<path d="M442.116 198.482H519.882" stroke="#E0E0E0" stroke-width="1.13" stroke-linecap="round" stroke-linejoin="round"/>
<path d="M442.116 217.219H519.882" stroke="#E0E0E0" stroke-width="1.13" stroke-linecap="round" stroke-linejoin="round"/>
<path d="M442.116 235.957H519.882" stroke="#E0E0E0" stroke-width="1.13" stroke-linecap="round" stroke-linejoin="round"/>
</g>
<path d="M434.099 46.8022H412.933V58.1582C410.258 62.1744 408.699 67.0007 408.699 72.1871V247.465H459.492V72.1802C459.492 58.1652 448.123 46.7953 434.093 46.7953L434.099 46.8022Z" fill="#D1CBF1"/>
<path d="M438.326 247.458H387.533V72.1802C387.533 58.1652 398.902 46.7953 412.933 46.7953C426.956 46.7953 438.333 58.1582 438.333 72.1802V247.458H438.326Z" fill="#E6E2FB"/>
<path d="M401.341 79.3539H394.44V230.036H401.341V79.3539Z" fill="white"/>
<path d="M415.988 79.3539H409.087V230.036H415.988V79.3539Z" fill="white"/>
<path d="M430.628 79.3539H423.727V230.036H430.628V79.3539Z" fill="white"/>
<path d="M295.072 178.449C282.78 181.718 266.928 177.805 260.221 175.818C260.27 175.77 260.318 175.714 260.374 175.666C260.332 175.666 260.304 175.68 260.263 175.68C267.503 163.264 268.854 148.28 268.889 139.091L292.266 148.342L295.079 178.449H295.072Z" fill="white"/>
<path d="M325.259 116.635C325.356 116.303 330.068 107.813 332.112 108.395C334.149 108.977 334.149 110.431 334.1 111.019C334.052 111.601 331.232 117.134 331.232 117.134L325.259 116.635Z" fill="#D46868"/>
<path d="M308.208 120.582L307.571 114.025C307.467 112.93 308.222 111.94 309.303 111.753C310.224 111.594 311.132 112.065 311.541 112.896C312.227 114.288 313.176 116.6 313.502 119.218C314.035 123.49 308.208 120.575 308.208 120.575V120.582Z" fill="#FC9C9A"/>
<path d="M332.015 97.9183H306.58V116.053H332.015V97.9183Z" fill="#543E96"/>
<path d="M333.92 109.904C333.061 109.904 332.285 110.403 331.924 111.178L330.13 115.015C324.414 114.114 310.737 117.265 307.425 119.889C304.113 122.514 304.238 130.56 304.238 130.56C301.342 142.761 292.252 148.349 292.252 148.349C292.252 148.349 277.639 169.932 289.078 179.716C322.01 179.806 324.338 132.09 324.338 132.09C324.656 128.593 329.381 120.997 329.381 120.997C329.381 120.997 334.044 119.972 334.64 118.678C335.007 117.888 335.645 114.814 336.088 112.522C336.352 111.165 335.312 109.904 333.92 109.904Z" fill="#FC9C9A"/>
<path d="M296.589 176.102C284.88 172.757 292.252 148.349 292.252 148.349C292.252 148.349 277.639 169.932 289.078 179.716C294.483 179.73 299.055 178.456 302.935 176.316C301.439 175.693 298.896 176.766 296.589 176.109V176.102Z" fill="#D46868"/>
<path d="M187.555 164.414C187.555 164.414 180.952 152.157 188.359 134.334L196.548 142.02L198.135 154.345L187.555 164.414Z" fill="#AEB3B9"/>
<path d="M188.359 134.334L167.137 140.033L157.43 135.871L150.106 143.883L137.24 149.346C137.24 149.346 145.672 166.006 167.649 163.645C181.437 162.163 199.5 160.183 199.5 160.183L188.366 134.327L188.359 134.334Z" fill="#FC9C9A"/>
<path d="M151.021 142.886L150.1 143.89L137.233 149.353C137.233 149.353 138.813 152.469 142.381 155.814L153.03 142.699L151.014 142.879L151.021 142.886Z" fill="#D46868"/>
<path d="M268.882 138.994C268.362 138.814 267.843 138.648 267.316 138.475C232.348 126.994 204.468 130.235 188.352 134.341C191.102 143.169 191.144 155.952 187.548 164.42C191.594 163.797 196.146 163.444 201.003 163.659L198.461 166.941C201.308 173.755 211.555 193.157 234.641 189.348C246.295 187.43 254.547 181.773 260.207 175.832C260.256 175.783 260.304 175.728 260.36 175.68C260.318 175.68 260.291 175.693 260.249 175.693C267.489 163.278 268.84 148.293 268.875 139.105V139.008L268.882 138.994Z" fill="white"/>
<path d="M260.194 181.752C260.152 181.752 260.124 181.766 260.083 181.766C263.602 175.735 265.73 169.094 266.99 162.814" stroke="#C1C1C1" stroke-width="1.13" stroke-linecap="round" stroke-linejoin="round"/>
<path d="M215.283 151.132L200.837 169.738" stroke="#C1C1C1" stroke-width="1.13" stroke-linecap="round" stroke-linejoin="round"/>
<path d="M291.109 187.617C285.718 175.195 271.91 174.073 260.367 175.673C254.699 181.669 246.399 187.41 234.648 189.341C211.562 193.143 201.315 173.748 198.46 166.934L185.899 183.123L180.419 176.324L146.102 193.925C149.185 203.419 153.48 213.03 159.91 221.554C172.167 237.792 196.368 238.318 209.269 222.593C213.752 217.122 217.756 211.548 221.165 205.815H246.662C246.662 205.815 245.609 215.204 241.625 221.041C239.048 224.822 235.168 231.56 232.75 237.625H271.175C271.175 237.625 301.065 210.599 291.109 187.624V187.617Z" fill="#333659"/>
<path d="M221.165 205.808L225.897 196.079L246.662 205.808H221.165Z" fill="#2B2A2A"/>
<path d="M185.899 183.116L173.781 198.724" stroke="#2B2A2A" stroke-width="1.13" stroke-linecap="round" stroke-linejoin="round"/>
<path d="M278.644 247.576L271.175 237.619H232.75C231.433 240.921 230.553 244.328 230.553 247.576H278.651H278.644Z" fill="#2B2A2A"/>
<path d="M134.884 188.49L146.095 193.919L180.245 176.31C179.899 172.771 179.123 169.344 177.626 166.449L134.884 188.49Z" fill="#2B2A2A"/>
<path d="M242.374 142.699L246.156 150.392C240.967 158.819 234.226 164.746 225.71 167.834L224.013 176.095L232.528 174.904C239.921 170.216 245.768 161.969 250.168 150.392L252.454 143.751L242.367 142.692L242.374 142.699Z" fill="#BD231E"/>
<path d="M240.295 128.455L238.057 126.149C233.512 126.149 233.512 118.678 238.057 118.678H258.863C262.639 118.678 265.702 121.738 265.702 125.512V135.276L240.295 128.462V128.455Z" fill="#2B2A2A"/>
<path d="M247.223 119.883C241.175 121.78 238.535 126.475 238.202 129.05C237.87 131.619 238.202 140.33 238.202 140.33C238.972 153.466 261.351 148.806 261.351 138.122L260.748 128.268H257.561L247.223 119.883Z" fill="#FC9C9A"/>
<path d="M243.24 134.05C242.547 134.285 242.034 134.971 242.006 135.698C241.979 136.425 242.436 137.152 243.108 137.436" stroke="#D46868" stroke-width="1.13" stroke-linecap="round" stroke-linejoin="round"/>
<path d="M248.2 132.99C248.228 133.828 248.637 134.493 249.108 134.472C249.579 134.458 249.946 133.766 249.912 132.928C249.884 132.09 249.475 131.426 249.004 131.446C248.533 131.46 248.166 132.153 248.2 132.99Z" fill="black"/>
<path d="M239.837 132.99C239.865 133.828 240.274 134.493 240.745 134.472C241.216 134.458 241.583 133.766 241.549 132.928C241.514 132.09 241.112 131.426 240.641 131.446C240.17 131.46 239.803 132.153 239.837 132.99Z" fill="black"/>
<path d="M250.521 139.61C248.865 141.978 243.745 142.726 241.798 139.797" stroke="#D46868" stroke-width="1.05" stroke-linecap="round" stroke-linejoin="round"/>
<path d="M266.575 135.878C266.575 137.969 264.877 139.673 262.778 139.673C260.678 139.673 258.981 137.976 258.981 135.878C258.981 133.78 260.678 132.083 262.778 132.083C264.877 132.083 266.575 133.78 266.575 135.878Z" fill="#FC9C9A"/>
<path d="M247.223 119.883C240.295 128.455 257.062 129.965 257.062 129.965L261.358 134.957L260.755 120.658L247.23 119.889L247.223 119.883Z" fill="#2B2A2A"/>
<path d="M101.094 187.493C101.094 187.493 87.334 196.993 61.8094 200.331C36.2847 203.661 7.51057 212.005 1.75297 228.007C-4.00463 244.01 6.25651 250.768 6.25651 250.768H103.346L94.0893 226.761C94.0893 226.761 111.355 223.008 120.362 214.256C127.339 207.477 125.614 182.403 124.478 171.435L102.022 162.883C101.205 170.32 101.039 178.74 101.094 187.5V187.493Z" fill="#8065CE"/>
<path d="M36.9012 226.553C34.9335 229.108 34.8296 232.619 35.7442 236.649" stroke="#2B2A2A" stroke-width="1.13" stroke-linecap="round" stroke-linejoin="round"/>
<path d="M94.0892 226.754L91.1238 219.241" stroke="#2B2A2A" stroke-width="1.13" stroke-linecap="round" stroke-linejoin="round"/>
<path d="M139.661 115.317L109.664 127.944C107.565 128.827 106.581 131.243 107.464 133.34L116.081 153.786C116.965 155.883 119.382 156.867 121.481 155.984L151.479 143.357C153.577 142.474 154.561 140.058 153.678 137.961L145.061 117.514C144.177 115.417 141.76 114.433 139.661 115.317Z" fill="#FEBB05"/>
<mask id="mask1_406_1723" style="mask-type:luminance" maskUnits="userSpaceOnUse" x="107" y="114" width="48" height="43">
<path d="M139.661 115.317L109.664 127.944C107.565 128.827 106.581 131.243 107.464 133.34L116.081 153.786C116.965 155.883 119.382 156.867 121.481 155.984L151.479 143.357C153.577 142.474 154.561 140.058 153.678 137.961L145.061 117.514C144.177 115.417 141.76 114.433 139.661 115.317Z" fill="white"/>
</mask>
<g mask="url(#mask1_406_1723)">
<path d="M106.429 130.553L131.566 136.39C132.958 136.716 134.386 136.023 134.995 134.729L145.139 113.221" stroke="#272525" stroke-width="1.13" stroke-linecap="round" stroke-linejoin="round"/>
</g>
<path d="M134.219 154.152C136.346 149.748 134.753 149.367 134.753 149.367L122.413 155.384C120.251 156.437 117.653 155.356 116.884 153.078L116.094 150.766L118.575 146.036C118.984 145.254 118.99 143.973 118.505 143.239C117.681 141.972 115.963 141.639 114.729 142.519L106.533 148.349C105.23 149.277 104.288 150.634 103.886 152.185C103.041 155.419 102.445 159.019 102.016 162.876L124.471 171.428C124.194 168.748 123.951 166.906 123.882 166.387C125.801 164.51 132.404 157.898 134.219 154.145V154.152Z" fill="#FC9C9A"/>
<path d="M100.907 248.386H62.8625C61.8648 248.386 61.0542 247.576 61.0542 246.579C61.0542 245.582 61.8648 244.771 62.8625 244.771H100.907V248.386Z" fill="black"/>
<path d="M136.97 248.386H81.5693L98.9738 214.29C99.3756 213.508 100.179 213.016 101.059 213.016H151.208C152.954 213.016 154.083 214.858 153.293 216.416L136.97 248.386Z" fill="black"/>
<path d="M139.866 248.386H84.4656L101.87 214.29C102.272 213.508 103.076 213.016 103.955 213.016H154.104C155.85 213.016 156.979 214.858 156.19 216.416L139.866 248.386Z" fill="#165BB8"/>
<path d="M139.866 248.386L156.189 216.416C156.986 214.865 155.85 213.016 154.104 213.016H145.527C139.021 233.623 118.138 243.719 103.401 248.386H139.866Z" fill="#4286F5"/>
<path d="M118.498 231.594C118.783 229.967 120.334 228.651 121.963 228.651C123.591 228.651 124.672 229.967 124.388 231.594C124.104 233.222 122.552 234.537 120.923 234.537C119.295 234.537 118.214 233.222 118.498 231.594Z" stroke="white" stroke-width="0.8" stroke-miterlimit="10"/>
<path d="M157.423 135.878L151.547 133.032C149.961 132.263 148.055 132.963 147.342 134.569C146.801 135.788 147.099 137.207 148.069 138.108L155.337 144.838L157.423 135.871V135.878Z" fill="#FC9C9A"/>
<path d="M57.9986 214.262C64.5305 214.262 69.8256 210.573 69.8256 206.022C69.8256 201.472 64.5305 197.782 57.9986 197.782C51.4667 197.782 46.1716 201.472 46.1716 206.022C46.1716 210.573 51.4667 214.262 57.9986 214.262Z" fill="#D46868"/>
<path d="M70.7264 186.856C75.5417 194.466 75.2161 203.315 67.858 207.975C60.4999 212.628 50.6268 210.239 45.8045 202.629C40.9823 195.019 43.047 185.083 50.4051 180.423C57.7632 175.77 65.9111 179.246 70.7264 186.856Z" fill="#FC9C9A"/>
<path d="M50.5228 202.872C50.5228 205.275 48.5759 207.22 46.1717 207.22C43.7675 207.22 41.8206 205.275 41.8206 202.872C41.8206 200.469 43.7675 198.523 46.1717 198.523C48.5759 198.523 50.5228 200.469 50.5228 202.872Z" fill="#FC9C9A"/>
<path d="M49.823 189.189C53.0032 186.703 59.322 182.355 65.5992 181.24C61.0888 177.902 55.5529 177.168 50.3981 180.43C44.01 184.474 41.6196 192.492 44.2455 199.513L49.0193 200.303C50.3426 200.524 51.375 199.181 50.8276 197.962L48.7768 193.371C48.1186 191.904 48.5412 190.179 49.8091 189.189H49.823Z" fill="#2B2A2A"/>
<path d="M68.6479 191.627C69.417 191.433 70.2969 191.8 70.6988 192.492C71.1006 193.185 70.8443 194.168 70.0614 194.701" stroke="#D46868" stroke-width="1.02" stroke-linecap="round" stroke-linejoin="round"/>
<path d="M59.6477 194.085C60.0911 194.846 60.7978 195.262 61.2274 195.013C61.6569 194.763 61.65 193.946 61.2135 193.178C60.7701 192.416 60.0634 192 59.6338 192.25C59.2042 192.499 59.2112 193.316 59.6477 194.085Z" fill="black"/>
<path d="M68.6687 189.438C69.1121 190.2 69.8188 190.616 70.2484 190.366C70.6779 190.117 70.671 189.3 70.2345 188.531C69.7911 187.77 69.0844 187.354 68.6548 187.603C68.2252 187.853 68.2322 188.67 68.6687 189.438Z" fill="black"/>
<path d="M63.9087 198.419C64.8718 199.236 66.1466 199.673 67.4007 199.624C68.6617 199.576 69.8949 199.036 70.7887 198.149" stroke="#D46868" stroke-width="1.02" stroke-linecap="round" stroke-linejoin="round"/>
<path d="M6.25635 242.313C6.25635 237.646 10.0393 233.865 14.7091 233.865H27.1597C32.0581 233.865 36.631 236.31 39.347 240.381L39.4093 240.471L46.802 242.957C48.4302 243.504 49.5319 245.035 49.5319 246.752C49.5319 248.961 47.7374 250.754 45.5272 250.754H14.7091C10.0393 250.754 6.25635 246.973 6.25635 242.306V242.313Z" fill="#FC9C9A"/>
<path d="M27.0835 257C24.6723 257 22.7185 255.047 22.7185 252.638V239.772H31.4484V252.638C31.4484 255.047 29.4946 257 27.0835 257Z" fill="#FC9C9A"/>
<path d="M35.3008 257C32.8896 257 30.9358 255.047 30.9358 252.638V239.772H33.3608C36.8458 239.772 39.6726 242.597 39.6726 246.08V252.638C39.6726 255.047 37.7188 257 35.3077 257H35.3008Z" fill="#FC9C9A"/>
<path d="M19.4621 257C17.051 257 15.0972 255.047 15.0972 252.638V239.772H23.8271V252.638C23.8271 255.047 21.8733 257 19.4621 257Z" fill="#FC9C9A"/>
<path d="M11.0095 255.906C8.75076 255.906 6.92163 254.078 6.92163 251.821V239.772H15.0973V251.821C15.0973 254.078 13.2682 255.906 11.0095 255.906Z" fill="#FC9C9A"/>
<path d="M15.0972 250.761V243.878" stroke="#272525" stroke-width="1.13" stroke-linecap="round" stroke-linejoin="round"/>
<path d="M23.8271 251.017V244.134" stroke="#272525" stroke-width="1.13" stroke-linecap="round" stroke-linejoin="round"/>
<path d="M31.1091 250.761V243.878" stroke="#272525" stroke-width="1.13" stroke-linecap="round" stroke-linejoin="round"/>
<path d="M162.82 124.788C166.859 123.129 168.787 118.513 167.128 114.477C165.468 110.441 160.849 108.514 156.811 110.172C152.772 111.831 150.844 116.447 152.503 120.483C154.163 124.519 158.782 126.446 162.82 124.788Z" fill="black"/>
<path d="M167.871 100.487H151.755V117.494H167.871V100.487Z" fill="#165BB8"/>
<path d="M168.28 115.167H151.27C150.501 115.167 149.878 114.544 149.878 113.775C149.878 113.007 150.501 112.383 151.27 112.383H168.28C169.049 112.383 169.672 113.007 169.672 113.775C169.672 114.544 169.049 115.167 168.28 115.167Z" fill="#4286F5"/>
<path d="M168.28 109.759H151.27C150.501 109.759 149.878 109.136 149.878 108.367C149.878 107.599 150.501 106.975 151.27 106.975H168.28C169.049 106.975 169.672 107.599 169.672 108.367C169.672 109.136 169.049 109.759 168.28 109.759Z" fill="#4286F5"/>
<path d="M165.895 105.103C173.876 101.745 177.622 92.5565 174.262 84.5802C170.902 76.6039 161.709 72.8599 153.728 76.2177C145.747 79.5756 142 88.7637 145.36 96.7401C148.72 104.716 157.914 108.46 165.895 105.103Z" fill="#FEBB05"/>
<path d="M165.895 105.103C173.876 101.745 177.622 92.5565 174.262 84.5802C170.902 76.6039 161.709 72.8599 153.728 76.2177C145.747 79.5756 142 88.7637 145.36 96.7401C148.72 104.716 157.914 108.46 165.895 105.103Z" fill="#FEBB05"/>
<path d="M159.813 74.9915C151.153 74.9915 144.134 82.006 144.134 90.6615C144.134 94.1514 145.277 97.3782 147.21 99.9818C149.815 101.914 153.044 103.056 156.536 103.056C165.197 103.056 172.215 96.0418 172.215 87.3862C172.215 83.8963 171.072 80.6695 169.139 78.066C166.534 76.134 163.305 74.9915 159.813 74.9915Z" fill="#F4EA94"/>
<path d="M154.554 98.9569V85.5166C154.554 84.5195 153.744 83.7094 152.746 83.7094C151.748 83.7094 150.938 84.5195 150.938 85.5166V86.2852C150.938 87.2824 151.748 88.0925 152.746 88.0925H159.82" stroke="black" stroke-width="1.13" stroke-linecap="round" stroke-linejoin="round"/>
<path d="M165.072 98.9569V85.5166C165.072 84.5195 165.882 83.7094 166.88 83.7094C167.878 83.7094 168.689 84.5195 168.689 85.5166V86.2852C168.689 87.2824 167.878 88.0925 166.88 88.0925H159.806" stroke="black" stroke-width="1.13" stroke-linecap="round" stroke-linejoin="round"/>
<path d="M154.555 94.1929H165.072" stroke="black" stroke-width="1.13" stroke-linecap="round" stroke-linejoin="round"/>
<path d="M378.685 120.623C378.297 120.713 374.722 119.259 374.722 119.259L365.167 113.464C364.08 112.453 357.913 107.516 346.654 113.817C346.654 113.817 345.206 116.372 346.897 117.625C348.588 118.885 353.964 116.275 356.583 117.916C359.202 119.564 362.195 123.733 361.045 124.806C360.345 125.457 357.927 125 356.126 124.543C355.149 124.293 354.082 124.605 353.465 125.408C352.571 126.572 352.842 128.171 353.957 128.988L360.324 133.648C362.07 134.929 364.177 135.629 366.345 135.643L369.505 135.67L378.214 140.933C378.214 140.933 379.066 120.533 378.678 120.617L378.685 120.623Z" fill="#FC9C9A"/>
<path d="M393.256 126.177C392.75 126.018 382.122 116.815 383.999 104.635C383.999 104.635 395.702 103.645 402.665 85.7452C413.383 66.1283 432.208 78.246 431.848 90.9454C431.488 103.645 425.952 123.532 393.256 126.177Z" fill="black"/>
<path d="M441.97 23.5432L431.883 7.6378C430.15 3.96093 432.167 1.64818 435.672 5.93439C434.211 2.35447 437.266 0.844943 439.677 4.13404C438.194 1.17732 440.585 -0.359907 442.906 2.68684C441.271 -0.25604 443.55 -0.969256 445.65 1.45429L457.948 13.1912L461.405 8.51028C462.042 7.64473 463.186 7.3262 464.176 7.72782C465.036 8.07404 465.604 8.89112 465.645 9.81207C465.777 12.9904 465.728 20.2887 462.784 23.5155L441.977 23.5363L441.97 23.5432Z" fill="#FC9C9A"/>
<mask id="mask2_406_1723" style="mask-type:luminance" maskUnits="userSpaceOnUse" x="431" y="-1" width="35" height="25">
<path d="M441.97 23.5432L431.883 7.6378C430.15 3.96093 432.167 1.64818 435.672 5.93439C434.211 2.35447 437.266 0.844943 439.677 4.13404C438.194 1.17732 440.585 -0.359907 442.906 2.68684C441.271 -0.25604 443.55 -0.969256 445.65 1.45429L457.948 13.1912L461.405 8.51028C462.042 7.64473 463.186 7.3262 464.176 7.72782C465.036 8.07404 465.604 8.89112 465.645 9.81207C465.777 12.9904 465.728 20.2887 462.784 23.5155L441.977 23.5363L441.97 23.5432Z" fill="white"/>
</mask>
<g mask="url(#mask2_406_1723)">
<path d="M435.673 5.94153L439.096 11.3287" stroke="#D46868" stroke-width="0.8" stroke-linecap="round" stroke-linejoin="round"/>
<path d="M439.532 3.92651L442.955 9.31372" stroke="#D46868" stroke-width="0.8" stroke-linecap="round" stroke-linejoin="round"/>
<path d="M442.913 2.49316L446.336 7.88037" stroke="#D46868" stroke-width="0.8" stroke-linecap="round" stroke-linejoin="round"/>
</g>
<path d="M460.518 85.669L475.373 99.6979L452.495 140.192L432.443 132.734C413.362 152.074 395.307 154.248 376.316 145.496L376.087 119.896C382.988 121.835 392.348 123.435 400.607 121.731C438.021 114.031 441.97 23.5431 441.97 23.5431L462.777 23.5223C466.663 44.254 464.855 64.965 460.518 85.669Z" fill="#543E96"/>
<path d="M432.443 132.727C432.443 132.727 430.164 131.495 428.002 128.836C425.84 126.177 422.307 116.088 422.307 116.088" stroke="#272525" stroke-width="1.13" stroke-linecap="round" stroke-linejoin="round"/>
<path d="M422.938 102.994C423.201 103.666 423.478 104.358 423.776 105.071C430.635 121.655 445.185 133.337 453.264 138.828L459.063 128.559C437.612 115.423 429.09 90.3499 429.09 90.3499L429.014 90.246C427.233 94.7815 425.217 99.0954 422.938 102.994Z" fill="white"/>
<path d="M550.519 93.0088L560.427 126.558L494.391 143.73L499.019 169.427L506.64 211.79L480.326 233.228L452.91 140.372L452.494 140.185L475.372 99.6978L481.13 101.367L550.519 93.0088Z" fill="#917CE3"/>
<path d="M494.392 143.737L475.608 147.934L499.013 169.427L494.392 143.737Z" fill="#543E96"/>
<path d="M470.35 109.787L486.244 114.731C487.983 115.271 489.819 115.402 491.613 115.105L554.032 104.891" stroke="#543E96" stroke-width="1.13" stroke-linecap="round" stroke-linejoin="round"/>
<path d="M481.241 236.331L471.95 246.78L510.785 235.32L506.641 211.791L480.327 233.229L481.241 236.331Z" fill="#FC9C9A"/>
<path d="M510.785 235.32L509.711 229.24L495.646 236.795L481.241 236.331L471.95 246.78L510.785 235.32Z" fill="#333659"/>
<path d="M563.573 126.488L569.642 139.084L574 98.8529L550.672 93.625L560.351 126.142L563.573 126.488Z" fill="#FC9C9A"/>
<path d="M574 98.8532L567.972 97.5029L569.538 113.381L563.572 126.489L569.642 139.084L574 98.8532Z" fill="#333659"/>
<path d="M480.326 233.229L507.569 217.074L506.641 211.791L480.326 233.229Z" fill="#D46868"/>
<path d="M403.78 85.8421C403.78 85.8421 402.207 92.081 407.099 101.062C411.318 108.803 419.134 102.391 419.134 102.391L427.206 108.284C427.206 108.284 432.603 101.734 429.977 90.8969L421.005 87.4209C421.005 87.4209 406.96 82.4283 403.773 85.8421H403.78Z" fill="#FC9C9A"/>
<path d="M405.339 95.0585C405.339 95.0585 403.745 96.1526 403.919 97.4474C404.092 98.7423 406.406 98.68 406.406 98.68L405.339 95.0585Z" fill="#FC9C9A"/>
<path d="M403.78 85.8421C403.78 85.8421 408.963 83.2177 412.046 86.5761C415.129 89.9344 421.774 95.9725 429.09 90.3499C429.09 90.3499 421.102 71.5085 403.78 85.8421Z" fill="black"/>
<path d="M421.884 89.9413C422.432 91.7971 421.372 93.7428 419.515 94.2899C417.658 94.8369 415.711 93.7775 415.164 91.9217C414.616 90.066 415.676 88.1202 417.533 87.5732C419.39 87.0262 421.337 88.0856 421.884 89.9413Z" fill="#FC9C9A"/>
<path d="M420.076 94.2899C419.73 94.6984 419.127 94.7469 418.718 94.4076C418.309 94.0614 418.261 93.459 418.6 93.0504C418.94 92.6419 419.549 92.5934 419.958 92.9327C420.367 93.2789 420.415 93.8814 420.076 94.2899Z" fill="white"/>
<path opacity="0.33" d="M414.332 94.3799C414.776 95.8894 413.916 97.4682 412.406 97.9113C410.896 98.3545 409.316 97.4959 408.873 95.9864C408.429 94.4768 409.288 92.8981 410.799 92.4549C412.309 92.0117 413.889 92.8704 414.332 94.3799Z" fill="#BD231E"/>
<path d="M408.208 93.2858C408.429 94.0406 408.305 94.74 407.93 94.8507C407.556 94.9615 407.071 94.4422 406.85 93.6875C406.628 92.9327 406.753 92.2333 407.127 92.1225C407.501 92.0117 407.986 92.5311 408.208 93.2858Z" fill="black"/>
<path d="M409.392 99.8087C409.392 99.8087 411.409 99.2132 411.984 96.7273" stroke="#D46868" stroke-width="1.13" stroke-linecap="round" stroke-linejoin="round"/>
</g>
<defs>
<linearGradient id="paint0_linear_406_1723" x1="88.0407" y1="116.836" x2="101.342" y2="51.9924" gradientUnits="userSpaceOnUse">
<stop stop-color="#F4F2FF"/>
<stop offset="1" stop-color="#9C90DB"/>
</linearGradient>
<clipPath id="clip0_406_1723">
<rect width="574" height="257" fill="white"/>
</clipPath>
</defs>
</svg>
