<svg width="94" height="24" viewBox="0 0 94 24" fill="none" xmlns="http://www.w3.org/2000/svg">
<mask id="mask0_179_99" style="mask-type:luminance" maskUnits="userSpaceOnUse" x="1" y="1" width="92" height="23">
<path d="M93 1H1V24H93V1Z" fill="white"/>
</mask>
<g mask="url(#mask0_179_99)">
<path d="M48.1769 1.94336H44.1089V23.2364H48.1769V1.94336Z" fill="white"/>
<path d="M29.7345 5.26607C28.2827 5.24941 26.8587 5.6647 25.6434 6.45917C24.4282 7.25364 23.4765 8.39143 22.9094 9.72798C22.3422 11.0645 22.1851 12.5395 22.4581 13.9655C22.7311 15.3915 23.4219 16.7042 24.4426 17.7368C25.4633 18.7693 26.7679 19.4752 28.1907 19.7646C29.6135 20.054 31.0902 19.914 32.4332 19.3623C33.7762 18.8106 34.9249 17.8721 35.7333 16.6661C36.5417 15.4601 36.9734 14.041 36.9735 12.5891C36.9823 10.6587 36.2251 8.80372 34.8681 7.4309C33.511 6.05809 31.6648 5.27955 29.7345 5.26607ZM29.7345 23.7661C27.5177 23.7912 25.3435 23.1569 23.488 21.9435C21.6326 20.7302 20.1798 18.9926 19.3141 16.9517C18.4485 14.9107 18.2091 12.6585 18.6264 10.4812C19.0437 8.30387 20.0988 6.29976 21.6577 4.72349C23.2167 3.14723 25.209 2.06998 27.3815 1.62861C29.5541 1.18725 31.8088 1.4017 33.8592 2.24472C35.9096 3.08774 37.6631 4.52126 38.8969 6.36315C40.1308 8.20503 40.7892 10.3721 40.7885 12.5891C40.8021 15.5365 39.6458 18.369 37.5735 20.465C35.5011 22.561 32.682 23.7492 29.7345 23.7691" fill="white"/>
<path d="M62.5643 23.7692C59.6173 23.7414 56.8006 22.5512 54.7265 20.4574C52.6525 18.3637 51.489 15.5358 51.489 12.5887C51.489 9.64167 52.6525 6.81378 54.7265 4.72005C56.8006 2.62633 59.6173 1.43611 62.5643 1.40824C64.0747 1.40431 65.5695 1.71459 66.9536 2.31937C68.3378 2.92415 69.581 3.8102 70.6043 4.92124L70.7153 5.04124L68.0153 7.77124L67.8983 7.64124C66.9133 6.55337 65.6203 5.79137 64.1915 5.45672C62.7627 5.12206 61.2658 5.23062 59.9002 5.76795C58.5346 6.30529 57.3651 7.24588 56.5475 8.46449C55.7298 9.6831 55.3028 11.1219 55.3233 12.5892C55.3028 14.0566 55.7298 15.4954 56.5475 16.714C57.3651 17.9326 58.5346 18.8732 59.9002 19.4105C61.2658 19.9479 62.7627 20.0564 64.1915 19.7218C65.6203 19.3871 66.9133 18.6251 67.8983 17.5372L68.0153 17.4072L70.7153 20.1362L70.6043 20.2562C69.5809 21.3671 68.3376 22.253 66.9535 22.8576C65.5694 23.4622 64.0747 23.7733 62.5643 23.7692Z" fill="white"/>
<path d="M13.721 1.94287L5.38499 10.5759V1.94287H1.36499V23.2359H5.38499V13.1799L14.155 23.2359H19.414L9.33999 11.6959L18.801 1.94287H13.721Z" fill="white"/>
<path d="M79.432 15.0069L82.432 7.37787L85.432 15.0069H79.432ZM80.86 1.94287L71.704 23.2359H76.196L78.062 18.4919H86.804L88.67 23.2359H93.162L84.006 1.94287H80.86Z" fill="white"/>
</g>
</svg>
