<svg width="248" height="23" viewBox="0 0 248 23" fill="none" xmlns="http://www.w3.org/2000/svg">
<mask id="mask0_177_44" style="mask-type:luminance" maskUnits="userSpaceOnUse" x="0" y="0" width="92" height="23">
<path d="M92 0H0V23H92V0Z" fill="white"/>
</mask>
<g mask="url(#mask0_177_44)">
<path d="M28.7345 4.26607C27.2827 4.24941 25.8587 4.6647 24.6434 5.45917C23.4282 6.25364 22.4765 7.39143 21.9094 8.72798C21.3422 10.0645 21.1851 11.5395 21.4581 12.9655C21.7311 14.3915 22.4219 15.7042 23.4426 16.7368C24.4633 17.7693 25.7679 18.4752 27.1907 18.7646C28.6135 19.054 30.0902 18.914 31.4332 18.3623C32.7762 17.8106 33.9249 16.8721 34.7333 15.6661C35.5417 14.4601 35.9734 13.041 35.9735 11.5891C35.9823 9.65873 35.2251 7.80372 33.8681 6.4309C32.511 5.05809 30.6648 4.27955 28.7345 4.26607ZM28.7345 22.7661C26.5177 22.7912 24.3435 22.1569 22.488 20.9435C20.6326 19.7302 19.1798 17.9926 18.3141 15.9517C17.4485 13.9107 17.2091 11.6585 17.6264 9.48118C18.0437 7.30387 19.0988 5.29976 20.6577 3.72349C22.2167 2.14723 24.209 1.06998 26.3815 0.628612C28.5541 0.187249 30.8088 0.401701 32.8592 1.24472C34.9096 2.08774 36.6631 3.52126 37.8969 5.36315C39.1308 7.20503 39.7892 9.37213 39.7885 11.5891C39.8021 14.5365 38.6458 17.369 36.5735 19.465C34.5011 21.561 31.682 22.7492 28.7345 22.7691" fill="white"/>
<path d="M61.5643 22.7692C58.6173 22.7414 55.8006 21.5512 53.7265 19.4574C51.6525 17.3637 50.489 14.5358 50.489 11.5887C50.489 8.64167 51.6525 5.81378 53.7265 3.72005C55.8006 1.62633 58.6173 0.436111 61.5643 0.40824C63.0747 0.404309 64.5695 0.714589 65.9536 1.31937C67.3378 1.92415 68.581 2.8102 69.6043 3.92124L69.7153 4.04124L67.0153 6.77124L66.8983 6.64124C65.9133 5.55337 64.6203 4.79137 63.1915 4.45672C61.7627 4.12206 60.2658 4.23062 58.9002 4.76795C57.5346 5.30529 56.3651 6.24588 55.5475 7.46449C54.7298 8.6831 54.3028 10.1219 54.3233 11.5892C54.3028 13.0566 54.7298 14.4954 55.5475 15.714C56.3651 16.9326 57.5346 17.8732 58.9002 18.4105C60.2658 18.9479 61.7627 19.0564 63.1915 18.7218C64.6203 18.3871 65.9133 17.6251 66.8983 16.5372L67.0153 16.4072L69.7153 19.1362L69.6043 19.2562C68.5809 20.3671 67.3376 21.253 65.9535 21.8576C64.5694 22.4622 63.0747 22.7733 61.5643 22.7692Z" fill="white"/>
<path d="M12.721 0.942871L4.38499 9.57587V0.942871H0.36499V22.2359H4.38499V12.1799L13.155 22.2359H18.414L8.33999 10.6959L17.801 0.942871H12.721Z" fill="white"/>
<path d="M78.432 14.0069L81.432 6.37787L84.432 14.0069H78.432ZM79.86 0.942871L70.704 22.2359H75.196L77.062 17.4919H85.804L87.67 22.2359H92.162L83.006 0.942871H79.86Z" fill="white"/>
</g>
<path d="M47.1774 0.943359H43.1094V22.2364H47.1774V0.943359Z" fill="white"/>
<path d="M247.411 2V19.84H244.971V10.32H241.811V8.32H244.971V2H247.411ZM233.251 15.8V3.52H241.531V5.52H235.731V8.48H240.891V10.44H235.731V13.76C238.191 13.76 240.171 13.68 242.371 13.32L242.611 15.32C240.011 15.72 237.691 15.8 234.651 15.8H233.251Z" fill="white"/>
<path d="M231.405 2V15.32H229.045V2H231.405ZM215.925 11.12C218.345 9.96 219.305 7.64 219.325 5.52V3.2H221.725V5.52C221.725 7.58 222.625 9.62 224.885 10.68L223.525 12.6C222.085 11.92 221.125 10.8 220.545 9.44C219.925 10.98 218.845 12.28 217.285 13L215.925 11.12ZM219.365 19.48V13.76H221.845V17.48H231.845V19.48H219.365ZM223.285 8.12V6.08H225.445V2.28H227.805V14.8H225.445V8.12H223.285Z" fill="white"/>
<path d="M204.76 3.28C207.14 3.28 208.94 5.24 209.3 8.44H212.4V2H214.84V19.84H212.4V10.44H209.32C209.06 13.84 207.22 15.96 204.76 15.96C202.04 15.96 200.12 13.5 200.12 9.6C200.12 5.72 202.04 3.28 204.76 3.28ZM202.52 9.6C202.5 12.26 203.42 13.68 204.76 13.68C206.1 13.68 206.98 12.26 207 9.6C206.98 6.96 206.1 5.52 204.76 5.52C203.42 5.52 202.5 6.96 202.52 9.6Z" fill="white"/>
<path d="M198.475 2V19.84H195.995V2H198.475ZM184.515 15.68V8.4H190.395V5.52H184.515V3.52H192.955V10.36H187.075V13.64C189.795 13.62 192.095 13.48 194.715 13.04L194.915 15.04C192.015 15.56 189.375 15.68 186.115 15.68H184.515Z" fill="white"/>
<path d="M176.39 3.72C176.39 9.2 174.91 13.78 168.51 17.12L167.15 15.24C169.97 13.76 171.71 12.1 172.73 10.14L167.59 10.6L167.23 8.48L173.51 8.12C173.71 7.36 173.85 6.56 173.91 5.72H168.19V3.72H176.39ZM176.35 10.88V8.84H179.79V2H182.27V19.8H179.79V10.88H176.35Z" fill="white"/>
<path d="M155.895 3.04004V8.60004H150.535V10.52C153.175 10.5 154.755 10.42 156.575 10.08L156.775 12.08C154.715 12.44 152.855 12.48 149.415 12.48H148.095V6.76004H153.415V5.00004H148.055V3.04004H155.895ZM150.095 15.76V13.76H162.375V19.8H159.895V15.76H150.095ZM156.935 10.24V8.28004H159.895V6.48004H156.935V4.52004H159.895V2.04004H162.375V13H159.895V10.24H156.935Z" fill="white"/>
<path d="M141.01 3.55988V5.51988H131.13V3.55988H134.97V1.87988H137.45V3.55988H141.01ZM132.01 9.27988C131.99 7.35988 133.73 6.03988 136.17 6.03988C138.61 6.03988 140.37 7.35988 140.37 9.27988C140.37 11.1799 138.61 12.4799 136.17 12.4799C133.73 12.4799 131.99 11.1799 132.01 9.27988ZM134.09 19.5999V13.2799H136.57V14.5999H143.61V13.2799H146.09V19.5999H134.09ZM134.33 9.27988C134.33 10.1599 135.05 10.6799 136.17 10.6799C137.29 10.6799 138.07 10.1599 138.09 9.27988C138.07 8.37988 137.29 7.89988 136.17 7.87988C135.05 7.89988 134.33 8.37988 134.33 9.27988ZM136.57 17.6799H143.61V16.4399H136.57V17.6799ZM141.17 11.3199V9.31988H143.61V7.79988H141.21V5.79988H143.61V1.99988H146.09V12.5999H143.61V11.3199H141.17Z" fill="white"/>
<path d="M117.805 2.8V4.92H121.445V2.8H123.965V10.56H115.325V2.8H117.805ZM117.125 13.64V11.72H128.925V16.56H119.605V17.72H129.445V19.68H117.165V14.76H126.445V13.64H117.125ZM117.805 8.64H121.445V6.8H117.805V8.64ZM126.405 11.08V2H128.925V5.48H131.325V7.48H128.925V11.08H126.405Z" fill="white"/>
<path d="M113.84 2V19.8H111.48V10.76H109.84V19H107.52V2.48H109.84V8.76H111.48V2H113.84ZM98.3199 14.4C101.94 12.28 103.5 9.68 103.82 6.2H99.1999V4.2H106.24C106.24 9.18 104.76 13.24 99.7599 16.16L98.3199 14.4Z" fill="white"/>
</svg>
