<svg width="92" height="23" viewBox="0 0 92 23" fill="none" xmlns="http://www.w3.org/2000/svg">
<path d="M47.1769 0.943359H43.1089V22.2364H47.1769V0.943359Z" fill="#00398D"/>
<path d="M28.7345 4.26607C27.2827 4.24941 25.8587 4.6647 24.6434 5.45917C23.4282 6.25364 22.4765 7.39143 21.9094 8.72798C21.3422 10.0645 21.1851 11.5395 21.4581 12.9655C21.7311 14.3915 22.4219 15.7042 23.4426 16.7368C24.4633 17.7693 25.7679 18.4752 27.1907 18.7646C28.6135 19.054 30.0902 18.914 31.4332 18.3623C32.7762 17.8106 33.9249 16.8721 34.7333 15.6661C35.5417 14.4601 35.9734 13.041 35.9735 11.5891C35.9823 9.65874 35.2251 7.80372 33.8681 6.4309C32.511 5.05809 30.6648 4.27955 28.7345 4.26607ZM28.7345 22.7661C26.5177 22.7912 24.3435 22.1569 22.488 20.9435C20.6326 19.7302 19.1798 17.9926 18.3141 15.9517C17.4485 13.9107 17.2091 11.6585 17.6264 9.48118C18.0437 7.30387 19.0988 5.29976 20.6577 3.72349C22.2167 2.14723 24.209 1.06998 26.3815 0.628612C28.5541 0.187249 30.8088 0.401701 32.8592 1.24472C34.9096 2.08774 36.6631 3.52126 37.8969 5.36315C39.1308 7.20503 39.7892 9.37213 39.7885 11.5891C39.8021 14.5365 38.6458 17.369 36.5735 19.465C34.5011 21.561 31.682 22.7492 28.7345 22.7691" fill="#00398D"/>
<path d="M61.5643 22.7692C58.6173 22.7414 55.8006 21.5512 53.7265 19.4574C51.6525 17.3637 50.489 14.5358 50.489 11.5887C50.489 8.64167 51.6525 5.81378 53.7265 3.72005C55.8006 1.62633 58.6173 0.436111 61.5643 0.40824C63.0747 0.404309 64.5695 0.714589 65.9536 1.31937C67.3378 1.92415 68.581 2.8102 69.6043 3.92124L69.7153 4.04124L67.0153 6.77124L66.8983 6.64124C65.9133 5.55337 64.6203 4.79137 63.1915 4.45672C61.7627 4.12206 60.2658 4.23062 58.9002 4.76795C57.5346 5.30529 56.3651 6.24588 55.5475 7.46449C54.7298 8.6831 54.3028 10.1219 54.3233 11.5892C54.3028 13.0566 54.7298 14.4954 55.5475 15.714C56.3651 16.9326 57.5346 17.8732 58.9002 18.4105C60.2658 18.9479 61.7627 19.0564 63.1915 18.7218C64.6203 18.3871 65.9133 17.6251 66.8983 16.5372L67.0153 16.4072L69.7153 19.1362L69.6043 19.2562C68.5809 20.3671 67.3376 21.253 65.9535 21.8576C64.5694 22.4622 63.0747 22.7733 61.5643 22.7692Z" fill="#00398D"/>
<path d="M12.721 0.942871L4.38499 9.57587V0.942871H0.36499V22.2359H4.38499V12.1799L13.155 22.2359H18.414L8.33999 10.6959L17.801 0.942871H12.721Z" fill="#00398D"/>
<path d="M78.4321 14.0069L81.4321 6.37787L84.4321 14.0069H78.4321ZM79.8601 0.942871L70.7041 22.2359H75.1961L77.0621 17.4919H85.8041L87.6701 22.2359H92.1621L83.0061 0.942871H79.8601Z" fill="#00398D"/>
</svg>
