<svg xmlns="http://www.w3.org/2000/svg" xmlns:xlink="http://www.w3.org/1999/xlink" width="360.2" height="34.275" viewBox="0 0 360.2 34.275">
  <defs>
    <clipPath id="clip-path">
      <rect id="사각형_22174" data-name="사각형 22174" width="142.334" height="34.275" fill="#00398d"/>
    </clipPath>
  </defs>
  <g id="그룹_46407" data-name="그룹 46407" transform="translate(-106 -25.172)">
    <g id="그룹_46406" data-name="그룹 46406">
      <g id="그룹_2026" data-name="그룹 2026" transform="translate(106 25.172)">
        <rect id="사각형_22173" data-name="사각형 22173" width="6.232" height="32.639" transform="translate(66.313 0.82)" fill="#00398d"/>
        <g id="그룹_41673" data-name="그룹 41673" transform="translate(0 0)">
          <g id="그룹_41672" data-name="그룹 41672" clip-path="url(#clip-path)">
            <path id="패스_73372" data-name="패스 73372" d="M62.43,5.915A11.224,11.224,0,1,0,73.654,17.14,11.239,11.239,0,0,0,62.43,5.915m0,28.361A17.138,17.138,0,1,1,79.568,17.14,17.155,17.155,0,0,1,62.43,34.276" transform="translate(-18.442 -0.001)" fill="#00398d"/>
            <path id="패스_73373" data-name="패스 73373" d="M148.282,34.275a17.138,17.138,0,1,1,0-34.275,16.979,16.979,0,0,1,12.466,5.384l.173.184-4.184,4.185-.181-.2a11.223,11.223,0,1,0,0,15.169l.181-.2,4.184,4.183-.173.184a16.979,16.979,0,0,1-12.466,5.384" transform="translate(-53.397 0)" fill="#00398d"/>
            <path id="패스_73374" data-name="패스 73374" d="M19.158,1.383,6.233,14.616V1.383H0V34.021H6.233V18.608l13.6,15.413h8.154L12.365,16.333,27.034,1.383Z" transform="translate(0 -0.563)" fill="#00398d"/>
            <path id="패스_73375" data-name="패스 73375" d="M195.949,21.408,200.6,9.713l0,0,0,0,4.651,11.694Zm2.215-20.025-14.2,32.639h6.965l2.894-7.271H207.38l2.894,7.271h6.965l-14.2-32.639Z" transform="translate(-74.905 -0.563)" fill="#00398d"/>
          </g>
        </g>
      </g>
      <path id="패스_120589" data-name="패스 120589" d="M22.75,3.484H19.214V-8.086H16.926V2.834H13.442V-19.188h3.484v7.67h2.288v-7.93H22.75ZM11.414-11.674a8.3,8.3,0,0,1-.273,2.21,5.084,5.084,0,0,1-.819,1.716Q8.606-5.512,6.877-3.432T3.25.78L.7-1.274Q2.314-3.146,3.861-4.992T6.942-8.84a5.231,5.231,0,0,0,.936-3.224v-3.224H1.768V-18.46h9.646ZM45.188,3.562H27.144V-3.016H41.08V-4.108H27.118V-7.02h17.55V-.442H30.732V.65H45.188ZM37.96-8.45h-12.9V-19.11h3.588v2.236h5.72V-19.11H37.96Zm6.708.676H41.08V-19.448h3.588v4.134H47.58v3.3H44.668Zm-10.3-3.692V-13.91h-5.72v2.444ZM69.5,3.3H51.558V-5.434h3.588v1.378H65.91V-5.434H69.5ZM53.846-6.37a5.142,5.142,0,0,1-1.755-.286,4.04,4.04,0,0,1-1.365-.806,3.507,3.507,0,0,1-.884-1.274,4.382,4.382,0,0,1-.312-1.69,4.382,4.382,0,0,1,.312-1.69,3.507,3.507,0,0,1,.884-1.274,4.04,4.04,0,0,1,1.365-.806,5.142,5.142,0,0,1,1.755-.286H58.63a5.142,5.142,0,0,1,1.755.286,4.04,4.04,0,0,1,1.365.806,3.507,3.507,0,0,1,.884,1.274,4.382,4.382,0,0,1,.312,1.69,4.382,4.382,0,0,1-.312,1.69,3.507,3.507,0,0,1-.884,1.274,4.04,4.04,0,0,1-1.365.806,5.142,5.142,0,0,1-1.755.286ZM69.5-6.214H65.91V-7.436h-2.5v-2.99h2.5v-1.2h-2.5v-2.99h2.5v-4.836H69.5Zm-6.006-9.048H48.932v-2.86h5.512v-1.872h3.588v1.872h5.46ZM65.91.286V-1.17H55.146V.286ZM57.59-9.2a2.366,2.366,0,0,0,1.261-.312,1,1,0,0,0,.507-.91,1,1,0,0,0-.507-.91,2.366,2.366,0,0,0-1.261-.312h-2.7a2.366,2.366,0,0,0-1.261.312,1,1,0,0,0-.507.91,1,1,0,0,0,.507.91,2.366,2.366,0,0,0,1.261.312ZM87.984-6.37H73.554V-14.2h8.658v-1.742H73.528v-3.068H85.8v7.826H77.142v1.742H87.984Zm5.434,9.932H89.83v-5.59H75.218V-5.1h18.2Zm0-9.542H89.83v-4.368H86.71v-2.99h3.12v-1.3H86.71v-2.99h3.12v-1.82h3.588Zm24.1,9.49h-3.588V-7.67h-5.018q-.13.156-.247.312a1.7,1.7,0,0,1-.273.286q-2.132,2.08-4.511,4.1T98.982.91L96.72-1.56q1.144-.91,2.314-1.872T101.3-5.3q1.092-.91,2.041-1.768t1.7-1.56H97.578V-11.8h8.58v-3.484h-8.32V-18.46h11.908V-11.1h4.186v-8.346h3.588Zm23.92,0h-3.588V-19.448h3.588ZM135.876-.13H121.5V-11.154h9.1v-4.29h-9.126v-3.172h12.714V-8.034h-9.1V-3.3h10.79ZM165.36,3.51h-3.588V-8.008h-3.25v2.392a6.432,6.432,0,0,1-.468,2.483A5.434,5.434,0,0,1,156.715-1.2,6.088,6.088,0,0,1,154.622.052a7.982,7.982,0,0,1-2.73.442,7.982,7.982,0,0,1-2.73-.442A6.088,6.088,0,0,1,147.069-1.2a5.434,5.434,0,0,1-1.339-1.937,6.432,6.432,0,0,1-.468-2.483V-13a6.432,6.432,0,0,1,.468-2.483,5.434,5.434,0,0,1,1.339-1.937,6.088,6.088,0,0,1,2.093-1.248,7.982,7.982,0,0,1,2.73-.442,7.982,7.982,0,0,1,2.73.442,6.088,6.088,0,0,1,2.093,1.248,5.434,5.434,0,0,1,1.339,1.937A6.432,6.432,0,0,1,158.522-13v1.56h3.25v-8.008h3.588ZM148.85-6.006a3.648,3.648,0,0,0,.754,2.444,2.842,2.842,0,0,0,2.288.884,2.842,2.842,0,0,0,2.288-.884,3.648,3.648,0,0,0,.754-2.444v-6.6a3.648,3.648,0,0,0-.754-2.444,2.842,2.842,0,0,0-2.288-.884,2.842,2.842,0,0,0-2.288.884,3.648,3.648,0,0,0-.754,2.444ZM190.736,3.3h-18.85V-4.81h3.588V.13h15.262Zm-11.96-9.828q-1.04-1.092-1.976-2.015t-1.95-2.015q-1.066,1.17-2.184,2.327T170.4-5.9l-2.548-2.054q.52-.52,1.118-1.157t1.2-1.3q.6-.663,1.157-1.287t.975-1.144a2.578,2.578,0,0,0,.507-.962,4.525,4.525,0,0,0,.143-1.2V-19.11h3.588V-15a4.675,4.675,0,0,0,.143,1.209,2.346,2.346,0,0,0,.507.949,23.174,23.174,0,0,0,1.794,1.95q.988.962,2.08,2.054Zm6.24,3.2h-3.484v-9.23H178.75V-15.73h2.782v-3.458h3.484Zm5.174.52h-3.536v-16.64h3.536ZM207.376-.13H193.258V-18.616h12.506v3.172h-8.918v4.29h7.54v3.12h-7.54V-3.3h10.53ZM213.2,3.51h-3.588V-8.008h-4.056V-11.44h4.056v-8.008H213.2Z" transform="translate(253 52.869)" fill="#00398d"/>
    </g>
  </g>
</svg>
